<?xml version="1.0" standalone="no"?>
<!DOCTYPE svg PUBLIC "-//W3C//DTD SVG 1.1//EN" "http://www.w3.org/Graphics/SVG/1.1/DTD/svg11.dtd" >
<svg>
<metadata>
Created by FontForge 20110222 at Fri Apr 17 12:50:35 2015
 By www-data
Copyright (C) 2001, 2008 Hoefler &#38; Frere-Jones. http://www.typography.com
</metadata>
<defs>
<font id="GothamNarrow-Book" horiz-adv-x="353" >
  <font-face
    font-family="Gotham Narrow Book"
    font-weight="325"
    font-stretch="condensed"
    units-per-em="1000"
    panose-1="0 0 0 0 0 0 0 0 0 0"
    ascent="800"
    descent="-200"
    x-height="521"
    cap-height="700"
    bbox="-190 -229 1034 972"
    underline-thickness="50"
    underline-position="-50"
    stemh="65"
    stemv="72"
    unicode-range="U+0020-FB04"
  />
<missing-glyph horiz-adv-x="500"
d="M0 -200v1000h500v-1000h-500zM71 750l179 -390l179 390h-358zM50 -76l172 376l-172 376v-752zM450 676l-172 -376l172 -376v752zM250 240l-179 -390h358z" />
    <glyph glyph-name="f_f" unicode="ff" horiz-adv-x="639"
d="M99 0v457h-64v63h64v48c0 54 15 95 40 121c24 24 58 37 101 37c28 0 49 -4 69 -10v-64c-21 6 -39 10 -59 10c-52 0 -79 -32 -79 -98v-44h136v-63h-135v-457h-73zM419 0v457h-64v63h64v48c0 54 14 95 40 121c24 24 58 37 101 37c27 0 49 -4 68 -10v-64
c-21 6 -39 10 -58 10c-53 0 -79 -32 -79 -98v-44h135v-63h-135v-457h-72z" />
    <glyph glyph-name="fi" unicode="fi" horiz-adv-x="552"
d="M99 0v457h-64v63h64v48c0 54 15 95 40 121c24 24 58 37 101 37c28 0 49 -4 69 -10v-64c-21 6 -39 10 -59 10c-52 0 -79 -32 -79 -98v-44h136v-63h-135v-457h-73zM399 0v521h73v-521h-73zM395 628v85h81v-85h-81z" />
    <glyph glyph-name="fl" unicode="fl" horiz-adv-x="552"
d="M99 0v457h-64v63h64v48c0 54 15 95 40 121c24 24 58 37 101 37c28 0 49 -4 69 -10v-64c-21 6 -39 10 -59 10c-52 0 -79 -32 -79 -98v-44h136v-63h-135v-457h-73zM399 0v722h73v-722h-73z" />
    <glyph glyph-name="f_f_i" unicode="ffi" horiz-adv-x="870"
d="M99 0v457h-64v63h64v48c0 54 15 95 40 121c24 24 58 37 101 37c28 0 49 -4 69 -10v-64c-21 6 -39 10 -59 10c-52 0 -79 -32 -79 -98v-44h136v-63h-135v-457h-73zM419 0v457h-64v63h64v48c0 54 14 95 40 121c24 24 58 37 101 37c27 0 49 -4 68 -10v-64
c-21 6 -39 10 -58 10c-53 0 -79 -32 -79 -98v-44h135v-63h-135v-457h-72zM719 0v521h72v-521h-72zM714 628v85h81v-85h-81z" />
    <glyph glyph-name="f_f_l" unicode="ffl" horiz-adv-x="870"
d="M99 0v457h-64v63h64v48c0 54 15 95 40 121c24 24 58 37 101 37c28 0 49 -4 69 -10v-64c-21 6 -39 10 -59 10c-52 0 -79 -32 -79 -98v-44h136v-63h-135v-457h-73zM419 0v457h-64v63h64v48c0 54 14 95 40 121c24 24 58 37 101 37c27 0 49 -4 68 -10v-64
c-21 6 -39 10 -58 10c-53 0 -79 -32 -79 -98v-44h135v-63h-135v-457h-72zM719 0v722h72v-722h-72z" />
    <glyph glyph-name=".notdef" horiz-adv-x="500"
d="M0 -200v1000h500v-1000h-500zM71 750l179 -390l179 390h-358zM50 -76l172 376l-172 376v-752zM450 676l-172 -376l172 -376v752zM250 240l-179 -390h358z" />
    <glyph glyph-name="A" unicode="A" horiz-adv-x="674"
d="M33 0l267 704h74l267 -704h-80l-68 184h-315l-68 -184h-77zM203 252h265l-132 355z" />
    <glyph glyph-name="B" unicode="B" horiz-adv-x="618"
d="M84 0v700h237c74 0 134 -21 173 -60c29 -29 46 -68 46 -115v-2c0 -93 -57 -140 -115 -163c82 -24 145 -73 145 -168v-3c0 -119 -97 -189 -244 -189h-242zM464 513v2c0 72 -54 117 -147 117h-158v-246h151c93 0 154 46 154 127zM494 196c0 78 -61 124 -174 124h-161v-252
h170c101 0 165 46 165 126v2z" />
    <glyph glyph-name="C" unicode="C" horiz-adv-x="615"
d="M359 -10c-173 0 -302 143 -302 356v6c0 212 132 358 307 358c96 0 158 -35 213 -86l-46 -57c-44 42 -97 73 -168 73c-129 0 -228 -118 -228 -287v-4c0 -172 99 -289 228 -289c72 0 123 30 173 78l45 -52c-59 -58 -126 -96 -222 -96z" />
    <glyph glyph-name="D" unicode="D" horiz-adv-x="668"
d="M84 0v700h198c195 0 329 -140 329 -346v-7c0 -205 -134 -347 -329 -347h-198zM280 631h-121v-562h121c153 0 253 111 253 277v7c0 166 -100 278 -253 278z" />
    <glyph glyph-name="E" unicode="E" horiz-adv-x="566"
d="M84 0v700h427v-69h-352v-244h316v-68h-316v-250h357v-69h-432z" />
    <glyph glyph-name="F" unicode="F" horiz-adv-x="550"
d="M84 0v700h423v-69h-348v-254h311v-69h-311v-308h-75z" />
    <glyph glyph-name="G" unicode="G" horiz-adv-x="667"
d="M371 -10c-191 0 -314 145 -314 356v7c0 203 128 357 312 357c91 0 152 -26 212 -75l-45 -60c-43 38 -93 65 -169 65c-133 0 -232 -120 -232 -287v-5c0 -176 95 -290 239 -290c60 0 115 22 151 50v197h-175v67h247v-300c-54 -44 -133 -82 -226 -82z" />
    <glyph glyph-name="H" unicode="H" horiz-adv-x="656"
d="M84 0v700h75v-313h338v313h75v-700h-75v317h-338v-317h-75z" />
    <glyph glyph-name="I" unicode="I" horiz-adv-x="256"
d="M91 0v700h75v-700h-75z" />
    <glyph glyph-name="J" unicode="J" horiz-adv-x="461"
d="M198 -9c-80 0 -138 40 -175 99l52 47c34 -51 70 -76 124 -76c65 0 112 47 112 141v498h75v-498c0 -72 -20 -125 -55 -160c-34 -34 -79 -51 -133 -51z" />
    <glyph glyph-name="K" unicode="K" horiz-adv-x="616"
d="M84 0v700h75v-404l332 404h93l-255 -306l269 -394h-91l-230 333l-118 -137v-196h-75z" />
    <glyph glyph-name="L" unicode="L" horiz-adv-x="519"
d="M84 0v700h75v-631h325v-69h-400z" />
    <glyph glyph-name="M" unicode="M" horiz-adv-x="751"
d="M84 0v700h78l213 -375l214 375h78v-700h-75v564l-216 -374h-3l-216 374v-564h-73z" />
    <glyph glyph-name="N" unicode="N" horiz-adv-x="679"
d="M84 0v700h71l366 -551v551h74v-700h-63l-375 564v-564h-73z" />
    <glyph glyph-name="O" unicode="O" horiz-adv-x="716"
d="M358 -11c-179 0 -301 151 -301 356v8c0 206 124 358 302 358s300 -151 300 -356v-8c0 -206 -123 -358 -301 -358zM359 58c129 0 223 119 223 288v7c0 169 -95 289 -224 289s-223 -119 -223 -288v-7c0 -169 95 -289 224 -289z" />
    <glyph glyph-name="P" unicode="P" horiz-adv-x="577"
d="M84 0v700h211c149 0 246 -84 246 -222v-2c0 -148 -112 -228 -255 -229h-127v-247h-75zM159 315h129c109 0 177 63 177 159v1c0 102 -68 156 -174 156h-132v-316z" />
    <glyph glyph-name="Q" unicode="Q" horiz-adv-x="717"
d="M670 32l-50 -52l-80 76c-49 -42 -111 -67 -182 -67c-179 0 -301 151 -301 356v8c0 206 124 358 302 358s300 -151 300 -356v-8c0 -95 -27 -178 -73 -241zM360 58c49 0 93 17 129 47l-112 101l49 52l107 -102c31 49 49 114 49 190v7c0 169 -95 289 -224 289
s-223 -119 -223 -288v-7c0 -170 95 -289 225 -289z" />
    <glyph glyph-name="Q.alt" horiz-adv-x="716"
d="M592 -98l-112 114c-36 -17 -78 -27 -122 -27c-179 0 -301 151 -301 356v8c0 206 124 358 302 358s300 -151 300 -356v-8c0 -121 -42 -223 -113 -287l149 -156v-2h-103zM359 58c129 0 223 119 223 288v7c0 169 -95 289 -224 289s-223 -119 -223 -288v-7
c0 -169 95 -289 224 -289z" />
    <glyph glyph-name="R" unicode="R" horiz-adv-x="621"
d="M84 0v700h239c80 0 144 -24 184 -65c35 -35 55 -85 55 -144v-2c0 -111 -69 -178 -166 -202l188 -287h-90l-176 272h-159v-272h-75zM159 340h151c114 0 177 57 177 146v2c0 92 -64 143 -169 143h-159v-291z" />
    <glyph glyph-name="S" unicode="S" horiz-adv-x="547"
d="M280 -10c-90 0 -170 31 -243 99l47 57c58 -54 118 -87 197 -87c84 0 140 51 140 118v1c0 58 -28 95 -155 140c-145 54 -202 106 -202 205v2c0 105 88 185 211 185c81 0 148 -25 210 -79l-45 -58c-52 45 -107 68 -168 68c-80 0 -132 -49 -132 -109v-2
c0 -61 31 -96 163 -144c142 -53 194 -110 194 -203v-2c0 -112 -92 -191 -217 -191z" />
    <glyph glyph-name="T" unicode="T" horiz-adv-x="544"
d="M234 0v630h-196v70h468v-70h-197v-630h-75z" />
    <glyph glyph-name="U" unicode="U" horiz-adv-x="654"
d="M326 -11c-149 0 -250 96 -250 272v439h75v-437c0 -132 67 -205 177 -205c107 0 175 69 175 202v440h75v-435c0 -180 -101 -276 -252 -276z" />
    <glyph glyph-name="V" unicode="V" horiz-adv-x="640"
d="M286 -5l-253 705h82l206 -596l207 596h79l-252 -705h-69z" />
    <glyph glyph-name="W" unicode="W" horiz-adv-x="956"
d="M248 -5l-210 705h81l165 -576l163 578h64l164 -578l165 576h77l-209 -705h-66l-164 565l-164 -565h-66z" />
    <glyph glyph-name="X" unicode="X" horiz-adv-x="616"
d="M484 700h84l-215 -340l226 -360h-86l-186 302l-186 -302h-84l226 358l-216 342h87l174 -285z" />
    <glyph glyph-name="Y" unicode="Y" horiz-adv-x="608"
d="M266 0v282l-246 418h87l198 -342l198 342h85l-246 -416v-284h-76z" />
    <glyph glyph-name="Z" unicode="Z" horiz-adv-x="585"
d="M55 0v51l380 581h-366v68h463v-51l-380 -581h380v-68h-477z" />
    <glyph glyph-name="a" unicode="a" horiz-adv-x="503"
d="M207 -11c-87 0 -167 59 -167 162v4c0 107 77 168 192 168c55 0 95 -9 134 -21v31c0 84 -49 129 -133 129c-52 0 -97 -16 -133 -35l-23 59c49 24 100 42 164 42c63 0 112 -18 146 -52c32 -32 50 -80 50 -141v-335h-71v76c-31 -49 -82 -87 -159 -87zM223 49
c80 -1 144 56 144 132v65c-33 12 -75 21 -126 21c-83 0 -129 -43 -129 -109v-3c0 -65 49 -106 111 -106z" />
    <glyph glyph-name="a.alt" horiz-adv-x="571"
d="M256 -10c-106 0 -208 91 -208 265v10c0 173 102 266 208 266c83 0 135 -50 169 -107v97h72v-521h-72v100c-35 -59 -87 -110 -169 -110zM271 55c82 0 157 78 157 201v9c0 123 -75 201 -157 201c-83 0 -149 -73 -149 -201v-8c0 -127 68 -202 149 -202z" />
    <glyph glyph-name="b" unicode="b" horiz-adv-x="571"
d="M315 -10c-83 0 -135 50 -169 107v-97h-72v722h72v-301c35 59 87 110 169 110c106 0 208 -92 208 -265v-10c0 -173 -102 -266 -208 -266zM301 55c82 0 148 73 148 201v8c0 127 -68 202 -148 202c-82 0 -158 -79 -158 -201v-10c0 -122 76 -200 158 -200z" />
    <glyph glyph-name="c" unicode="c" horiz-adv-x="477"
d="M276 -11c-131 0 -230 108 -230 266v7c0 158 102 269 232 269c74 0 124 -31 164 -71l-43 -54c-31 31 -68 59 -122 59c-87 0 -157 -82 -157 -203v-5c0 -123 72 -202 160 -202c51 0 89 26 122 60l42 -48c-39 -44 -91 -78 -168 -78z" />
    <glyph glyph-name="d" unicode="d" horiz-adv-x="571"
d="M256 -10c-106 0 -208 91 -208 265v10c0 173 102 266 208 266c83 0 135 -50 169 -107v298h72v-722h-72v100c-35 -59 -87 -110 -169 -110zM271 55c82 0 157 78 157 201v9c0 123 -75 201 -157 201c-83 0 -149 -73 -149 -201v-8c0 -127 68 -202 149 -202z" />
    <glyph glyph-name="e" unicode="e" horiz-adv-x="512"
d="M277 -11c-127 0 -231 102 -231 267v5c0 159 93 270 215 270c131 0 209 -112 209 -269c0 -7 0 -21 -1 -30h-350c8 -115 79 -179 161 -179c57 0 99 24 135 60l41 -46c-47 -48 -101 -78 -179 -78zM119 288h279c-5 99 -52 180 -137 180c-77 0 -135 -71 -142 -180z" />
    <glyph glyph-name="f" unicode="f" horiz-adv-x="319"
d="M99 0v457h-64v63h64v48c0 54 15 95 40 121c24 24 58 37 101 37c28 0 49 -4 69 -10v-64c-21 6 -39 10 -59 10c-52 0 -79 -32 -79 -98v-44h136v-63h-135v-457h-73z" />
    <glyph glyph-name="g" unicode="g" horiz-adv-x="571"
d="M267 -152c-70 0 -137 18 -198 56l29 58c49 -32 108 -51 168 -51c98 0 159 52 159 156v76c-36 -58 -89 -107 -172 -107c-106 0 -205 88 -205 245v4c0 157 100 246 206 246c83 0 136 -48 171 -103v93h72v-452c0 -71 -20 -124 -57 -161c-40 -40 -99 -60 -173 -60zM270 101
c80 0 157 70 157 181v3c0 112 -77 181 -157 181c-82 0 -148 -67 -148 -181v-2c0 -113 67 -182 148 -182z" />
    <glyph glyph-name="h" unicode="h" horiz-adv-x="537"
d="M74 0v722h72v-286c29 52 76 95 154 95c106 0 170 -73 170 -190v-341h-72v321c0 93 -44 145 -120 145s-132 -60 -132 -149v-317h-72z" />
    <glyph glyph-name="i" unicode="i" horiz-adv-x="232"
d="M76 628v85h80v-85h-80zM80 0v521h72v-521h-72z" />
    <glyph glyph-name="j" unicode="j" horiz-adv-x="234"
d="M78 628v85h80v-85h-80zM34 -153c-17 0 -29 2 -43 5v60c10 -2 22 -3 31 -3c40 0 60 25 60 72v540h72v-545c0 -83 -41 -129 -120 -129z" />
    <glyph glyph-name="k" unicode="k" horiz-adv-x="493"
d="M74 0v722h72v-485l231 284h87l-183 -219l190 -302h-85l-154 245l-86 -101v-144h-72z" />
    <glyph glyph-name="l" unicode="l" horiz-adv-x="232"
d="M80 0v722h72v-722h-72z" />
    <glyph glyph-name="m" unicode="m" horiz-adv-x="831"
d="M74 0v521h72v-83c29 49 71 93 146 93c70 0 119 -38 144 -95c32 51 80 95 160 95c101 0 166 -70 166 -191v-340h-72v321c0 95 -42 145 -113 145c-68 0 -123 -54 -123 -148v-318h-72v322c0 93 -42 144 -113 144c-70 0 -123 -61 -123 -149v-317h-72z" />
    <glyph glyph-name="n" unicode="n" horiz-adv-x="537"
d="M74 0v521h72v-85c29 52 76 95 154 95c106 0 170 -73 170 -190v-341h-72v321c0 93 -44 145 -120 145s-132 -60 -132 -149v-317h-72z" />
    <glyph glyph-name="o" unicode="o" horiz-adv-x="555"
d="M277 -11c-134 0 -231 115 -231 267v7c0 152 98 268 232 268s231 -115 231 -267v-6c0 -152 -98 -269 -232 -269zM278 54c92 0 158 88 158 203v5c0 117 -70 204 -159 204c-92 0 -157 -87 -157 -203v-5c0 -117 69 -204 158 -204z" />
    <glyph glyph-name="p" unicode="p" horiz-adv-x="571"
d="M74 -150v671h72v-100c35 59 87 110 169 110c106 0 208 -92 208 -265v-10c0 -173 -102 -266 -208 -266c-83 0 -135 50 -169 107v-247h-72zM301 55c82 0 148 73 148 201v8c0 127 -68 202 -148 202c-82 0 -158 -79 -158 -201v-10c0 -122 76 -200 158 -200z" />
    <glyph glyph-name="q" unicode="q" horiz-adv-x="571"
d="M425 -150v250c-35 -59 -87 -110 -169 -110c-106 0 -208 91 -208 265v10c0 173 102 266 208 266c83 0 135 -50 169 -107v97h72v-671h-72zM271 55c82 0 157 78 157 201v9c0 123 -75 201 -157 201c-83 0 -149 -73 -149 -201v-8c0 -127 68 -202 149 -202z" />
    <glyph glyph-name="r" unicode="r" horiz-adv-x="351"
d="M74 0v521h72v-115c31 73 94 126 179 122v-78h-4c-97 0 -175 -68 -175 -202v-248h-72z" />
    <glyph glyph-name="s" unicode="s" horiz-adv-x="428"
d="M215 -9c-64 0 -133 25 -188 73l38 53c49 -41 100 -63 152 -63c57 0 97 32 97 81v1c0 46 -43 70 -113 99c-83 36 -149 69 -149 150v2c0 85 69 142 162 142c59 0 120 -23 164 -56l-35 -55c-40 29 -85 49 -131 49c-55 0 -90 -32 -90 -73v-2c0 -44 45 -66 116 -96
c86 -38 146 -74 146 -153v-2c0 -93 -75 -150 -169 -150z" />
    <glyph glyph-name="t" unicode="t" horiz-adv-x="347"
d="M227 -8c-74 0 -130 36 -130 129v336h-63v64h63v152h72v-152h136v-64h-136v-324c0 -55 30 -75 75 -75c20 0 40 5 61 14v-62c-23 -11 -48 -18 -78 -18z" />
    <glyph glyph-name="u" unicode="u" horiz-adv-x="537"
d="M237 -10c-106 0 -170 73 -170 189v342h72v-321c0 -93 44 -145 120 -145s132 59 132 148v318h72v-521h-72v85c-29 -52 -76 -95 -154 -95z" />
    <glyph glyph-name="v" unicode="v" horiz-adv-x="510"
d="M223 -4l-192 525h78l146 -428l148 428h76l-191 -525h-65z" />
    <glyph glyph-name="w" unicode="w" horiz-adv-x="753"
d="M193 -4l-156 525h76l115 -415l119 416h61l119 -416l116 415h73l-156 -525h-65l-118 406l-119 -406h-65z" />
    <glyph glyph-name="x" unicode="x" horiz-adv-x="498"
d="M122 521l127 -203l129 203h78l-166 -253l174 -268h-81l-135 215l-135 -215h-79l172 266l-165 255h81z" />
    <glyph glyph-name="y" unicode="y" horiz-adv-x="513"
d="M264 92l140 429h77l-185 -530c-37 -108 -82 -145 -152 -145c-33 0 -64 8 -94 24l22 60c20 -11 42 -19 68 -19c39 0 64 22 90 89l-200 521h78z" />
    <glyph glyph-name="z" unicode="z" horiz-adv-x="470"
d="M45 0v47l289 412h-278v62h370v-47l-289 -412h288v-62h-380z" />
    <glyph glyph-name="Aacute" unicode="&#xc1;" horiz-adv-x="674"
d="M33 0l267 704h74l267 -704h-80l-68 184h-315l-68 -184h-77zM203 252h265l-132 355zM306 762l90 123l74 -34l-106 -89h-58z" />
    <glyph glyph-name="aacute" unicode="&#xe1;" horiz-adv-x="503"
d="M207 -11c-87 0 -167 59 -167 162v4c0 107 77 168 192 168c55 0 95 -9 134 -21v31c0 84 -49 129 -133 129c-52 0 -97 -16 -133 -35l-23 59c49 24 100 42 164 42c63 0 112 -18 146 -52c32 -32 50 -80 50 -141v-335h-71v76c-31 -49 -82 -87 -159 -87zM223 49
c80 -1 144 56 144 132v65c-33 12 -75 21 -126 21c-83 0 -129 -43 -129 -109v-3c0 -65 49 -106 111 -106zM222 589l86 140l74 -35l-105 -105h-55z" />
    <glyph glyph-name="aacute.alt" horiz-adv-x="571"
d="M259 589l86 140l74 -35l-105 -105h-55zM256 -10c-106 0 -208 91 -208 265v10c0 173 102 266 208 266c83 0 135 -50 169 -107v97h72v-521h-72v100c-35 -59 -87 -110 -169 -110zM271 55c82 0 157 78 157 201v9c0 123 -75 201 -157 201c-83 0 -149 -73 -149 -201v-8
c0 -127 68 -202 149 -202z" />
    <glyph glyph-name="Abreve" unicode="&#x102;" horiz-adv-x="674"
d="M33 0l267 704h74l267 -704h-80l-68 184h-315l-68 -184h-77zM203 252h265l-132 355zM336 761c-74 0 -128 37 -134 105h56c10 -30 35 -47 78 -47s68 17 78 47h56c-6 -68 -60 -105 -134 -105z" />
    <glyph glyph-name="abreve" unicode="&#x103;" horiz-adv-x="503"
d="M207 -11c-87 0 -167 59 -167 162v4c0 107 77 168 192 168c55 0 95 -9 134 -21v31c0 84 -49 129 -133 129c-52 0 -97 -16 -133 -35l-23 59c49 24 100 42 164 42c63 0 112 -18 146 -52c32 -32 50 -80 50 -141v-335h-71v76c-31 -49 -82 -87 -159 -87zM223 49
c80 -1 144 56 144 132v65c-33 12 -75 21 -126 21c-83 0 -129 -43 -129 -109v-3c0 -65 49 -106 111 -106zM251 588c-73 0 -126 41 -133 116h53c10 -35 35 -59 80 -59s70 24 80 59h53c-7 -75 -60 -116 -133 -116z" />
    <glyph glyph-name="abreve.alt" horiz-adv-x="571"
d="M256 -10c-106 0 -208 91 -208 265v10c0 173 102 266 208 266c83 0 135 -50 169 -107v97h72v-521h-72v100c-35 -59 -87 -110 -169 -110zM271 55c82 0 157 78 157 201v9c0 123 -75 201 -157 201c-83 0 -149 -73 -149 -201v-8c0 -127 68 -202 149 -202zM289 588
c-73 0 -126 41 -133 116h53c10 -35 35 -59 80 -59s70 24 80 59h53c-7 -75 -60 -116 -133 -116z" />
    <glyph glyph-name="Acircumflex" unicode="&#xc2;" horiz-adv-x="674"
d="M33 0l267 704h74l267 -704h-80l-68 184h-315l-68 -184h-77zM203 252h265l-132 355zM204 761l98 114h68l98 -114h-66l-67 59l-67 -59h-64z" />
    <glyph glyph-name="acircumflex" unicode="&#xe2;" horiz-adv-x="503"
d="M207 -11c-87 0 -167 59 -167 162v4c0 107 77 168 192 168c55 0 95 -9 134 -21v31c0 84 -49 129 -133 129c-52 0 -97 -16 -133 -35l-23 59c49 24 100 42 164 42c63 0 112 -18 146 -52c32 -32 50 -80 50 -141v-335h-71v76c-31 -49 -82 -87 -159 -87zM223 49
c80 -1 144 56 144 132v65c-33 12 -75 21 -126 21c-83 0 -129 -43 -129 -109v-3c0 -65 49 -106 111 -106zM126 590l94 130h62l94 -130h-59l-67 69l-67 -69h-57z" />
    <glyph glyph-name="acircumflex.alt" horiz-adv-x="571"
d="M164 590l94 130h62l94 -130h-59l-67 69l-67 -69h-57zM256 -10c-106 0 -208 91 -208 265v10c0 173 102 266 208 266c83 0 135 -50 169 -107v97h72v-521h-72v100c-35 -59 -87 -110 -169 -110zM271 55c82 0 157 78 157 201v9c0 123 -75 201 -157 201
c-83 0 -149 -73 -149 -201v-8c0 -127 68 -202 149 -202z" />
    <glyph glyph-name="Adieresis" unicode="&#xc4;" horiz-adv-x="674"
d="M33 0l267 704h74l267 -704h-80l-68 184h-315l-68 -184h-77zM203 252h265l-132 355zM377 764v86h85v-86h-85zM211 764v86h86v-86h-86z" />
    <glyph glyph-name="adieresis" unicode="&#xe4;" horiz-adv-x="503"
d="M207 -11c-87 0 -167 59 -167 162v4c0 107 77 168 192 168c55 0 95 -9 134 -21v31c0 84 -49 129 -133 129c-52 0 -97 -16 -133 -35l-23 59c49 24 100 42 164 42c63 0 112 -18 146 -52c32 -32 50 -80 50 -141v-335h-71v76c-31 -49 -82 -87 -159 -87zM223 49
c80 -1 144 56 144 132v65c-33 12 -75 21 -126 21c-83 0 -129 -43 -129 -109v-3c0 -65 49 -106 111 -106zM288 592v89h81v-89h-81zM133 592v89h81v-89h-81z" />
    <glyph glyph-name="adieresis.alt" horiz-adv-x="571"
d="M326 592v89h81v-89h-81zM171 592v89h81v-89h-81zM256 -10c-106 0 -208 91 -208 265v10c0 173 102 266 208 266c83 0 135 -50 169 -107v97h72v-521h-72v100c-35 -59 -87 -110 -169 -110zM271 55c82 0 157 78 157 201v9c0 123 -75 201 -157 201c-83 0 -149 -73 -149 -201
v-8c0 -127 68 -202 149 -202z" />
    <glyph glyph-name="AE" unicode="&#xc6;" horiz-adv-x="887"
d="M12 0l346 700h474v-69h-340v-244h303v-68h-303v-250h344v-69h-419v184h-237l-90 -184h-78zM213 251h204v381h-20z" />
    <glyph glyph-name="ae" unicode="&#xe6;" horiz-adv-x="824"
d="M210 -11c-91 0 -170 60 -170 163v3c0 107 76 168 190 168c53 0 91 -9 129 -21v31c0 84 -46 129 -130 129c-50 0 -90 -14 -129 -34l-23 60c50 24 98 40 160 40c86 0 144 -35 168 -102c36 65 96 105 168 105c129 0 208 -113 208 -269c0 -6 0 -21 -1 -30h-350
c8 -116 78 -179 160 -179c58 0 100 24 136 60l41 -46c-49 -48 -101 -78 -180 -78c-77 0 -145 39 -185 107c-43 -58 -107 -107 -192 -107zM430 288h279c-5 99 -53 180 -138 180c-76 0 -134 -71 -141 -180zM221 49c66 0 119 44 155 99c-10 31 -16 68 -17 99
c-34 11 -74 20 -121 20c-81 0 -126 -43 -126 -109v-3c0 -65 47 -106 109 -106z" />
    <glyph glyph-name="AEacute" unicode="&#x1fc;" horiz-adv-x="887"
d="M495 755l90 123l74 -34l-106 -89h-58zM12 0l346 700h474v-69h-340v-244h303v-68h-303v-250h344v-69h-419v184h-237l-90 -184h-78zM213 251h204v381h-20z" />
    <glyph glyph-name="aeacute" unicode="&#x1fd;" horiz-adv-x="824"
d="M380 589l86 140l74 -35l-105 -105h-55zM210 -11c-91 0 -170 60 -170 163v3c0 107 76 168 190 168c53 0 91 -9 129 -21v31c0 84 -46 129 -130 129c-50 0 -90 -14 -129 -34l-23 60c50 24 98 40 160 40c86 0 144 -35 168 -102c36 65 96 105 168 105c129 0 208 -113 208 -269
c0 -6 0 -21 -1 -30h-350c8 -116 78 -179 160 -179c58 0 100 24 136 60l41 -46c-49 -48 -101 -78 -180 -78c-77 0 -145 39 -185 107c-43 -58 -107 -107 -192 -107zM430 288h279c-5 99 -53 180 -138 180c-76 0 -134 -71 -141 -180zM221 49c66 0 119 44 155 99
c-10 31 -16 68 -17 99c-34 11 -74 20 -121 20c-81 0 -126 -43 -126 -109v-3c0 -65 47 -106 109 -106z" />
    <glyph glyph-name="Agrave" unicode="&#xc0;" horiz-adv-x="674"
d="M33 0l267 704h74l267 -704h-80l-68 184h-315l-68 -184h-77zM203 252h265l-132 355zM367 762h-59l-105 89l73 34z" />
    <glyph glyph-name="agrave" unicode="&#xe0;" horiz-adv-x="503"
d="M207 -11c-87 0 -167 59 -167 162v4c0 107 77 168 192 168c55 0 95 -9 134 -21v31c0 84 -49 129 -133 129c-52 0 -97 -16 -133 -35l-23 59c49 24 100 42 164 42c63 0 112 -18 146 -52c32 -32 50 -80 50 -141v-335h-71v76c-31 -49 -82 -87 -159 -87zM223 49
c80 -1 144 56 144 132v65c-33 12 -75 21 -126 21c-83 0 -129 -43 -129 -109v-3c0 -65 49 -106 111 -106zM227 589l-105 105l74 35l86 -140h-55z" />
    <glyph glyph-name="agrave.alt" horiz-adv-x="571"
d="M256 -10c-106 0 -208 91 -208 265v10c0 173 102 266 208 266c83 0 135 -50 169 -107v97h72v-521h-72v100c-35 -59 -87 -110 -169 -110zM271 55c82 0 157 78 157 201v9c0 123 -75 201 -157 201c-83 0 -149 -73 -149 -201v-8c0 -127 68 -202 149 -202zM264 589l-105 105
l74 35l86 -140h-55z" />
    <glyph glyph-name="Amacron" unicode="&#x100;" horiz-adv-x="674"
d="M33 0l267 704h74l267 -704h-80l-68 184h-315l-68 -184h-77zM203 252h265l-132 355zM190 779v61h292v-61h-292z" />
    <glyph glyph-name="amacron" unicode="&#x101;" horiz-adv-x="503"
d="M207 -11c-87 0 -167 59 -167 162v4c0 107 77 168 192 168c55 0 95 -9 134 -21v31c0 84 -49 129 -133 129c-52 0 -97 -16 -133 -35l-23 59c49 24 100 42 164 42c63 0 112 -18 146 -52c32 -32 50 -80 50 -141v-335h-71v76c-31 -49 -82 -87 -159 -87zM223 49
c80 -1 144 56 144 132v65c-33 12 -75 21 -126 21c-83 0 -129 -43 -129 -109v-3c0 -65 49 -106 111 -106zM114 606v58h274v-58h-274z" />
    <glyph glyph-name="amacron.alt" horiz-adv-x="571"
d="M256 -10c-106 0 -208 91 -208 265v10c0 173 102 266 208 266c83 0 135 -50 169 -107v97h72v-521h-72v100c-35 -59 -87 -110 -169 -110zM271 55c82 0 157 78 157 201v9c0 123 -75 201 -157 201c-83 0 -149 -73 -149 -201v-8c0 -127 68 -202 149 -202zM152 606v58h274v-58
h-274z" />
    <glyph glyph-name="Aogonek" unicode="&#x104;" horiz-adv-x="674"
d="M646 -108v-44c-7 -1 -12 -1 -16 -1c-73 2 -110 30 -110 72c0 30 16 54 44 81h-3l-68 184h-315l-68 -184h-77l267 704h74l267 -704h-19c-28 -27 -40 -47 -40 -68c0 -26 19 -38 64 -40zM203 252h265l-132 355z" />
    <glyph glyph-name="aogonek" unicode="&#x105;" horiz-adv-x="503"
d="M446 -108v-44c-7 -1 -12 -1 -16 -1c-73 2 -110 30 -110 72c0 30 16 55 46 82v75c-31 -49 -82 -87 -159 -87c-87 0 -167 59 -167 162v4c0 107 77 168 192 168c55 0 95 -9 134 -21v31c0 84 -49 129 -133 129c-52 0 -97 -16 -133 -35l-23 59c49 24 100 42 164 42
c63 0 112 -18 146 -52c32 -32 50 -80 50 -141v-335h-15c-28 -27 -40 -47 -40 -68c0 -26 19 -38 64 -40zM223 49c80 -1 144 56 144 132v65c-33 12 -75 21 -126 21c-83 0 -129 -43 -129 -109v-3c0 -65 49 -106 111 -106z" />
    <glyph glyph-name="aogonek.alt" horiz-adv-x="571"
d="M508 -108v-44c-7 -1 -12 -1 -16 -1c-73 2 -110 30 -110 72c0 30 16 54 44 81h-1v100c-35 -59 -87 -110 -169 -110c-106 0 -208 91 -208 265v10c0 173 102 266 208 266c83 0 135 -50 169 -107v97h72v-521h-13c-28 -27 -40 -47 -40 -68c0 -26 19 -38 64 -40zM271 55
c82 0 157 78 157 201v9c0 123 -75 201 -157 201c-83 0 -149 -73 -149 -201v-8c0 -127 68 -202 149 -202z" />
    <glyph glyph-name="Aring" unicode="&#xc5;" horiz-adv-x="674"
d="M33 0l252 665c-30 15 -50 45 -50 80c0 53 46 92 102 92s102 -39 102 -92c0 -35 -21 -64 -51 -80l253 -665h-80l-68 184h-315l-68 -184h-77zM203 251h265l-132 356zM337 689c34 0 60 24 60 56s-26 56 -60 56c-35 0 -60 -24 -60 -56s25 -56 60 -56z" />
    <glyph glyph-name="aring" unicode="&#xe5;" horiz-adv-x="503"
d="M207 -11c-87 0 -167 59 -167 162v4c0 107 77 168 192 168c55 0 95 -9 134 -21v31c0 84 -49 129 -133 129c-52 0 -97 -16 -133 -35l-23 59c49 24 100 42 164 42c63 0 112 -18 146 -52c32 -32 50 -80 50 -141v-335h-71v76c-31 -49 -82 -87 -159 -87zM223 49
c80 -1 144 56 144 132v65c-33 12 -75 21 -126 21c-83 0 -129 -43 -129 -109v-3c0 -65 49 -106 111 -106zM251 587c-55 0 -100 44 -100 97c0 54 45 98 100 98s100 -44 100 -98c0 -53 -45 -97 -100 -97zM251 621c34 0 62 28 62 63s-28 64 -62 64s-62 -29 -62 -64
s28 -63 62 -63z" />
    <glyph glyph-name="aring.alt" horiz-adv-x="571"
d="M289 587c-55 0 -100 44 -100 97c0 54 45 98 100 98s100 -44 100 -98c0 -53 -45 -97 -100 -97zM289 621c34 0 62 28 62 63s-28 64 -62 64s-62 -29 -62 -64s28 -63 62 -63zM256 -10c-106 0 -208 91 -208 265v10c0 173 102 266 208 266c83 0 135 -50 169 -107v97h72v-521
h-72v100c-35 -59 -87 -110 -169 -110zM271 55c82 0 157 78 157 201v9c0 123 -75 201 -157 201c-83 0 -149 -73 -149 -201v-8c0 -127 68 -202 149 -202z" />
    <glyph glyph-name="aring.alt2" horiz-adv-x="503"
d="M208 -11c-88 0 -169 59 -169 162v4c0 107 78 168 193 168c55 0 95 -9 134 -22v32c0 84 -49 129 -132 129c-53 0 -98 -16 -134 -35l-23 60c32 15 66 28 104 35c-19 17 -30 42 -30 69c0 54 45 97 100 97s100 -43 100 -97c0 -30 -14 -56 -35 -74c28 -8 52 -21 72 -41
c32 -33 49 -80 49 -141v-335h-71v76c-31 -48 -82 -87 -158 -87zM223 49c80 -1 144 56 144 131v67c-33 11 -75 20 -126 20c-83 0 -129 -43 -129 -109v-4c0 -65 48 -105 111 -105zM251 528c34 0 62 28 62 63s-28 63 -62 63s-61 -28 -61 -63s27 -63 61 -63z" />
    <glyph glyph-name="Aringacute" unicode="&#x1fa;" horiz-adv-x="674"
d="M33 0l252 665c-30 15 -50 45 -50 80c0 53 46 92 102 92s102 -39 102 -92c0 -35 -21 -64 -51 -80l253 -665h-80l-68 184h-315l-68 -184h-77zM203 251h265l-132 356zM337 689c34 0 60 24 60 56s-26 56 -60 56c-35 0 -60 -24 -60 -56s25 -56 60 -56zM304 864l92 108l72 -34
l-104 -74h-60z" />
    <glyph glyph-name="aringacute" unicode="&#x1fb;" horiz-adv-x="503"
d="M221 810l88 119l71 -35l-102 -84h-57zM207 -11c-87 0 -167 59 -167 162v4c0 107 77 168 192 168c55 0 95 -9 134 -21v31c0 84 -49 129 -133 129c-52 0 -97 -16 -133 -35l-23 59c49 24 100 42 164 42c63 0 112 -18 146 -52c32 -32 50 -80 50 -141v-335h-71v76
c-31 -49 -82 -87 -159 -87zM223 49c80 -1 144 56 144 132v65c-33 12 -75 21 -126 21c-83 0 -129 -43 -129 -109v-3c0 -65 49 -106 111 -106zM251 587c-55 0 -100 44 -100 97c0 54 45 98 100 98s100 -44 100 -98c0 -53 -45 -97 -100 -97zM251 621c34 0 62 28 62 63
s-28 64 -62 64s-62 -29 -62 -64s28 -63 62 -63z" />
    <glyph glyph-name="aringacute.alt" horiz-adv-x="571"
d="M259 810l89 119l70 -35l-102 -84h-57zM289 587c-55 0 -100 44 -100 97c0 54 45 98 100 98s100 -44 100 -98c0 -53 -45 -97 -100 -97zM289 621c34 0 62 28 62 63s-28 64 -62 64s-62 -29 -62 -64s28 -63 62 -63zM256 -10c-106 0 -208 91 -208 265v10c0 173 102 266 208 266
c83 0 135 -50 169 -107v97h72v-521h-72v100c-35 -59 -87 -110 -169 -110zM271 55c82 0 157 78 157 201v9c0 123 -75 201 -157 201c-83 0 -149 -73 -149 -201v-8c0 -127 68 -202 149 -202z" />
    <glyph glyph-name="aringacute.alt2" horiz-adv-x="503"
d="M221 718l88 119l71 -35l-102 -84h-57zM208 -11c-88 0 -169 59 -169 162v4c0 107 78 168 193 168c55 0 95 -9 134 -22v32c0 84 -49 129 -132 129c-53 0 -98 -16 -134 -35l-23 60c32 15 66 28 104 35c-19 17 -30 42 -30 69c0 54 45 97 100 97s100 -43 100 -97
c0 -30 -14 -56 -35 -74c28 -8 52 -21 72 -41c32 -33 49 -80 49 -141v-335h-71v76c-31 -48 -82 -87 -158 -87zM223 49c80 -1 144 56 144 131v67c-33 11 -75 20 -126 20c-83 0 -129 -43 -129 -109v-4c0 -65 48 -105 111 -105zM251 528c34 0 62 28 62 63s-28 63 -62 63
s-61 -28 -61 -63s27 -63 61 -63z" />
    <glyph glyph-name="Atilde" unicode="&#xc3;" horiz-adv-x="674"
d="M33 0l267 704h74l267 -704h-80l-68 184h-315l-68 -184h-77zM203 252h265l-132 355zM404 763c-24 0 -47 10 -71 21c-20 9 -38 17 -51 17c-22 0 -32 -13 -45 -44l-47 13c18 63 43 94 84 94c23 0 46 -10 71 -22c20 -9 38 -16 51 -16c22 0 32 12 45 43l46 -13
c-18 -63 -42 -93 -83 -93z" />
    <glyph glyph-name="atilde" unicode="&#xe3;" horiz-adv-x="503"
d="M207 -11c-87 0 -167 59 -167 162v4c0 107 77 168 192 168c55 0 95 -9 134 -21v31c0 84 -49 129 -133 129c-52 0 -97 -16 -133 -35l-23 59c49 24 100 42 164 42c63 0 112 -18 146 -52c32 -32 50 -80 50 -141v-335h-71v76c-31 -49 -82 -87 -159 -87zM223 49
c80 -1 144 56 144 132v65c-33 12 -75 21 -126 21c-83 0 -129 -43 -129 -109v-3c0 -65 49 -106 111 -106zM317 589c-23 0 -44 10 -67 22c-21 12 -39 20 -53 20c-22 0 -32 -13 -44 -48l-45 13c18 69 42 98 83 98c23 0 44 -10 67 -22c21 -11 39 -20 53 -20c22 0 32 14 44 47
l45 -12c-18 -69 -42 -98 -83 -98z" />
    <glyph glyph-name="atilde.alt" horiz-adv-x="571"
d="M256 -10c-106 0 -208 91 -208 265v10c0 173 102 266 208 266c83 0 135 -50 169 -107v97h72v-521h-72v100c-35 -59 -87 -110 -169 -110zM271 55c82 0 157 78 157 201v9c0 123 -75 201 -157 201c-83 0 -149 -73 -149 -201v-8c0 -127 68 -202 149 -202zM355 589
c-23 0 -44 10 -67 22c-21 12 -39 20 -53 20c-22 0 -32 -13 -44 -48l-45 13c18 69 42 98 83 98c23 0 44 -10 67 -22c21 -11 39 -20 53 -20c22 0 32 14 44 47l45 -12c-18 -69 -42 -98 -83 -98z" />
    <glyph glyph-name="Cacute" unicode="&#x106;" horiz-adv-x="615"
d="M359 -10c-173 0 -302 143 -302 356v6c0 212 132 358 307 358c96 0 158 -35 213 -86l-46 -57c-44 42 -97 73 -168 73c-129 0 -228 -118 -228 -287v-4c0 -172 99 -289 228 -289c72 0 123 30 173 78l45 -52c-59 -58 -126 -96 -222 -96zM320 762l90 123l74 -34l-106 -89h-58z
" />
    <glyph glyph-name="cacute" unicode="&#x107;" horiz-adv-x="477"
d="M239 589l86 140l74 -35l-105 -105h-55zM276 -11c-131 0 -230 108 -230 266v7c0 158 102 269 232 269c74 0 124 -31 164 -71l-43 -54c-31 31 -68 59 -122 59c-87 0 -157 -82 -157 -203v-5c0 -123 72 -202 160 -202c51 0 89 26 122 60l42 -48c-39 -44 -91 -78 -168 -78z
" />
    <glyph glyph-name="Ccaron" unicode="&#x10c;" horiz-adv-x="615"
d="M359 -10c-173 0 -302 143 -302 356v6c0 212 132 358 307 358c96 0 158 -35 213 -86l-46 -57c-44 42 -97 73 -168 73c-129 0 -228 -118 -228 -287v-4c0 -172 99 -289 228 -289c72 0 123 30 173 78l45 -52c-59 -58 -126 -96 -222 -96zM482 877l-98 -114h-68l-98 114h66
l67 -59l67 59h64z" />
    <glyph glyph-name="ccaron" unicode="&#x10d;" horiz-adv-x="477"
d="M394 720l-94 -130h-62l-94 130h59l67 -69l67 69h57zM276 -11c-131 0 -230 108 -230 266v7c0 158 102 269 232 269c74 0 124 -31 164 -71l-43 -54c-31 31 -68 59 -122 59c-87 0 -157 -82 -157 -203v-5c0 -123 72 -202 160 -202c51 0 89 26 122 60l42 -48
c-39 -44 -91 -78 -168 -78z" />
    <glyph glyph-name="Ccedilla" unicode="&#xc7;" horiz-adv-x="615"
d="M312 -142l-70 31l69 105c-149 23 -254 159 -254 352v6c0 212 132 358 307 358c96 0 158 -35 213 -86l-46 -57c-44 42 -97 73 -168 73c-129 0 -228 -118 -228 -287v-4c0 -172 99 -289 228 -289c72 0 123 30 173 78l45 -52c-57 -56 -122 -93 -212 -96z" />
    <glyph glyph-name="ccedilla" unicode="&#xe7;" horiz-adv-x="477"
d="M230 -142l-70 31l69 105c-107 22 -183 122 -183 261v7c0 158 102 269 232 269c74 0 124 -31 164 -71l-43 -54c-31 31 -68 59 -122 59c-87 0 -157 -82 -157 -203v-5c0 -123 72 -202 160 -202c51 0 89 26 122 60l42 -48c-37 -42 -87 -75 -158 -78z" />
    <glyph glyph-name="Cdotaccent" unicode="&#x10a;" horiz-adv-x="615"
d="M306 764v86h88v-86h-88zM359 -10c-173 0 -302 143 -302 356v6c0 212 132 358 307 358c96 0 158 -35 213 -86l-46 -57c-44 42 -97 73 -168 73c-129 0 -228 -118 -228 -287v-4c0 -172 99 -289 228 -289c72 0 123 30 173 78l45 -52c-59 -58 -126 -96 -222 -96z" />
    <glyph glyph-name="cdotaccent" unicode="&#x10b;" horiz-adv-x="477"
d="M276 -11c-131 0 -230 108 -230 266v7c0 158 102 269 232 269c74 0 124 -31 164 -71l-43 -54c-31 31 -68 59 -122 59c-87 0 -157 -82 -157 -203v-5c0 -123 72 -202 160 -202c51 0 89 26 122 60l42 -48c-39 -44 -91 -78 -168 -78zM227 592v89h84v-89h-84z" />
    <glyph glyph-name="Dcaron" unicode="&#x10e;" horiz-adv-x="668"
d="M84 0v700h198c195 0 329 -140 329 -346v-7c0 -205 -134 -347 -329 -347h-198zM280 631h-121v-562h121c153 0 253 111 253 277v7c0 166 -100 278 -253 278zM452 870l-98 -114h-68l-98 114h66l67 -59l67 59h64z" />
    <glyph glyph-name="dcaron" unicode="&#x10f;" horiz-adv-x="571"
d="M550 576l13 160h66v-3l-45 -157h-34zM256 -10c-106 0 -208 91 -208 265v10c0 173 102 266 208 266c83 0 135 -50 169 -107v298h72v-722h-72v100c-35 -59 -87 -110 -169 -110zM271 55c82 0 157 78 157 201v9c0 123 -75 201 -157 201c-83 0 -149 -73 -149 -201v-8
c0 -127 68 -202 149 -202z" />
    <glyph glyph-name="Dcroat" unicode="&#x110;" horiz-adv-x="691"
d="M107 0v318h-68v68h68v314h198c194 0 329 -140 329 -346v-7c0 -205 -135 -347 -329 -347h-198zM352 318h-170v-249h122c153 0 252 111 252 277v7c0 166 -100 278 -252 278h-122v-245h170v-68z" />
    <glyph glyph-name="dcroat" unicode="&#x111;" horiz-adv-x="571"
d="M274 606v53h151v63h72v-63h61v-53h-61v-606h-72v100c-35 -59 -87 -110 -168 -110c-106 0 -209 94 -209 265v10c0 171 102 266 209 266c82 0 134 -51 168 -107v182h-151zM272 55c80 0 155 78 155 200v10c0 123 -75 201 -155 201c-83 0 -150 -75 -150 -201v-8
c0 -125 69 -202 150 -202z" />
    <glyph glyph-name="Eacute" unicode="&#xc9;" horiz-adv-x="566"
d="M269 755l90 123l74 -34l-106 -89h-58zM84 0v700h427v-69h-352v-244h316v-68h-316v-250h357v-69h-432z" />
    <glyph glyph-name="eacute" unicode="&#xe9;" horiz-adv-x="512"
d="M231 589l86 140l74 -35l-105 -105h-55zM277 -11c-127 0 -231 102 -231 267v5c0 159 93 270 215 270c131 0 209 -112 209 -269c0 -7 0 -21 -1 -30h-350c8 -115 79 -179 161 -179c57 0 99 24 135 60l41 -46c-47 -48 -101 -78 -179 -78zM119 288h279c-5 99 -52 180 -137 180
c-77 0 -135 -71 -142 -180z" />
    <glyph glyph-name="Ebreve" unicode="&#x114;" horiz-adv-x="566"
d="M299 754c-74 0 -128 37 -134 105h56c10 -30 35 -47 78 -47s68 17 78 47h56c-6 -68 -60 -105 -134 -105zM84 0v700h427v-69h-352v-244h316v-68h-316v-250h357v-69h-432z" />
    <glyph glyph-name="ebreve" unicode="&#x115;" horiz-adv-x="512"
d="M277 -11c-127 0 -231 102 -231 267v5c0 159 93 270 215 270c131 0 209 -112 209 -269c0 -7 0 -21 -1 -30h-350c8 -115 79 -179 161 -179c57 0 99 24 135 60l41 -46c-47 -48 -101 -78 -179 -78zM119 288h279c-5 99 -52 180 -137 180c-77 0 -135 -71 -142 -180zM261 588
c-73 0 -126 41 -133 116h53c10 -35 35 -59 80 -59s70 24 80 59h53c-7 -75 -60 -116 -133 -116z" />
    <glyph glyph-name="Ecaron" unicode="&#x11a;" horiz-adv-x="566"
d="M431 870l-98 -114h-68l-98 114h66l67 -59l67 59h64zM84 0v700h427v-69h-352v-244h316v-68h-316v-250h357v-69h-432z" />
    <glyph glyph-name="ecaron" unicode="&#x11b;" horiz-adv-x="512"
d="M386 720l-94 -130h-62l-94 130h59l67 -69l67 69h57zM277 -11c-127 0 -231 102 -231 267v5c0 159 93 270 215 270c131 0 209 -112 209 -269c0 -7 0 -21 -1 -30h-350c8 -115 79 -179 161 -179c57 0 99 24 135 60l41 -46c-47 -48 -101 -78 -179 -78zM119 288h279
c-5 99 -52 180 -137 180c-77 0 -135 -71 -142 -180z" />
    <glyph glyph-name="Ecircumflex" unicode="&#xca;" horiz-adv-x="566"
d="M84 0v700h427v-69h-352v-244h316v-68h-316v-250h357v-69h-432zM167 756l98 114h68l98 -114h-66l-67 59l-67 -59h-64z" />
    <glyph glyph-name="ecircumflex" unicode="&#xea;" horiz-adv-x="512"
d="M136 590l94 130h62l94 -130h-59l-67 69l-67 -69h-57zM277 -11c-127 0 -231 102 -231 267v5c0 159 93 270 215 270c131 0 209 -112 209 -269c0 -7 0 -21 -1 -30h-350c8 -115 79 -179 161 -179c57 0 99 24 135 60l41 -46c-47 -48 -101 -78 -179 -78zM119 288h279
c-5 99 -52 180 -137 180c-77 0 -135 -71 -142 -180z" />
    <glyph glyph-name="Edieresis" unicode="&#xcb;" horiz-adv-x="566"
d="M340 757v86h85v-86h-85zM174 757v86h86v-86h-86zM84 0v700h427v-69h-352v-244h316v-68h-316v-250h357v-69h-432z" />
    <glyph glyph-name="edieresis" unicode="&#xeb;" horiz-adv-x="512"
d="M298 592v89h81v-89h-81zM143 592v89h81v-89h-81zM277 -11c-127 0 -231 102 -231 267v5c0 159 93 270 215 270c131 0 209 -112 209 -269c0 -7 0 -21 -1 -30h-350c8 -115 79 -179 161 -179c57 0 99 24 135 60l41 -46c-47 -48 -101 -78 -179 -78zM119 288h279
c-5 99 -52 180 -137 180c-77 0 -135 -71 -142 -180z" />
    <glyph glyph-name="Edotaccent" unicode="&#x116;" horiz-adv-x="566"
d="M255 757v86h88v-86h-88zM84 0v700h427v-69h-352v-244h316v-68h-316v-250h357v-69h-432z" />
    <glyph glyph-name="edotaccent" unicode="&#x117;" horiz-adv-x="512"
d="M277 -11c-127 0 -231 102 -231 267v5c0 159 93 270 215 270c131 0 209 -112 209 -269c0 -7 0 -21 -1 -30h-350c8 -115 79 -179 161 -179c57 0 99 24 135 60l41 -46c-47 -48 -101 -78 -179 -78zM119 288h279c-5 99 -52 180 -137 180c-77 0 -135 -71 -142 -180zM219 592v89
h84v-89h-84z" />
    <glyph glyph-name="Egrave" unicode="&#xc8;" horiz-adv-x="566"
d="M330 755h-59l-105 89l73 34zM84 0v700h427v-69h-352v-244h316v-68h-316v-250h357v-69h-432z" />
    <glyph glyph-name="egrave" unicode="&#xe8;" horiz-adv-x="512"
d="M277 -11c-127 0 -231 102 -231 267v5c0 159 93 270 215 270c131 0 209 -112 209 -269c0 -7 0 -21 -1 -30h-350c8 -115 79 -179 161 -179c57 0 99 24 135 60l41 -46c-47 -48 -101 -78 -179 -78zM119 288h279c-5 99 -52 180 -137 180c-77 0 -135 -71 -142 -180zM236 589
l-105 105l74 35l86 -140h-55z" />
    <glyph glyph-name="Emacron" unicode="&#x112;" horiz-adv-x="566"
d="M153 772v61h292v-61h-292zM84 0v700h427v-69h-352v-244h316v-68h-316v-250h357v-69h-432z" />
    <glyph glyph-name="emacron" unicode="&#x113;" horiz-adv-x="512"
d="M277 -11c-127 0 -231 102 -231 267v5c0 159 93 270 215 270c131 0 209 -112 209 -269c0 -7 0 -21 -1 -30h-350c8 -115 79 -179 161 -179c57 0 99 24 135 60l41 -46c-47 -48 -101 -78 -179 -78zM119 288h279c-5 99 -52 180 -137 180c-77 0 -135 -71 -142 -180zM124 606v58
h274v-58h-274z" />
    <glyph glyph-name="Eogonek" unicode="&#x118;" horiz-adv-x="566"
d="M84 0v700h427v-69h-352v-244h316v-68h-316v-250h357v-69h-26c-28 -27 -40 -47 -40 -68c0 -26 19 -38 64 -40v-44c-7 -1 -12 -1 -16 -1c-73 2 -110 30 -110 72c0 30 16 54 44 81h-348z" />
    <glyph glyph-name="eogonek" unicode="&#x119;" horiz-adv-x="512"
d="M415 113l41 -46l-42 -41c-34 -29 -60 -62 -60 -91s19 -41 64 -43v-44c-7 -1 -12 -1 -17 -1c-72 2 -109 30 -109 73c0 27 13 49 37 75c-16 -4 -34 -6 -52 -6c-127 0 -231 102 -231 267v5c0 159 93 270 215 270c131 0 209 -112 209 -269c0 -6 0 -24 -1 -30h-350
c8 -115 79 -179 161 -179c57 0 99 24 135 60zM119 288h279c-5 99 -52 180 -137 180c-77 0 -135 -71 -142 -180z" />
    <glyph glyph-name="Eth" unicode="&#xd0;" horiz-adv-x="691"
d="M107 0v318h-68v68h68v314h198c194 0 329 -140 329 -346v-7c0 -205 -135 -347 -329 -347h-198zM352 318h-170v-249h122c153 0 252 111 252 277v7c0 166 -100 278 -252 278h-122v-245h170v-68z" />
    <glyph glyph-name="eth" unicode="&#xf0;" horiz-adv-x="555"
d="M428 679l-78 -35c92 -103 158 -221 158 -358v-8c0 -176 -96 -289 -234 -289c-127 0 -228 114 -228 270v6c0 156 100 257 209 257c64 0 109 -28 146 -64c-23 51 -63 105 -113 158l-101 -45l-22 46l85 38c-24 23 -50 45 -76 67h99l40 -39l93 42zM277 54
c91 0 157 84 157 203v5c0 118 -69 199 -163 199c-89 0 -151 -84 -151 -200v-4c0 -115 68 -203 157 -203z" />
    <glyph glyph-name="Gbreve" unicode="&#x11e;" horiz-adv-x="667"
d="M355 761c-74 0 -128 37 -134 105h56c10 -30 35 -47 78 -47s68 17 78 47h56c-6 -68 -60 -105 -134 -105zM371 -10c-191 0 -314 145 -314 356v7c0 203 128 357 312 357c91 0 152 -26 212 -75l-45 -60c-43 38 -93 65 -169 65c-133 0 -232 -120 -232 -287v-5
c0 -176 95 -290 239 -290c60 0 115 22 151 50v197h-175v67h247v-300c-54 -44 -133 -82 -226 -82z" />
    <glyph glyph-name="gbreve" unicode="&#x11f;" horiz-adv-x="571"
d="M267 -152c-70 0 -137 18 -198 56l29 58c49 -32 108 -51 168 -51c98 0 159 52 159 156v76c-36 -58 -89 -107 -172 -107c-106 0 -205 88 -205 245v4c0 157 100 246 206 246c83 0 136 -48 171 -103v93h72v-452c0 -71 -20 -124 -57 -161c-40 -40 -99 -60 -173 -60zM270 101
c80 0 157 70 157 181v3c0 112 -77 181 -157 181c-82 0 -148 -67 -148 -181v-2c0 -113 67 -182 148 -182zM289 588c-73 0 -126 41 -133 116h53c10 -35 35 -59 80 -59s70 24 80 59h53c-7 -75 -60 -116 -133 -116z" />
    <glyph glyph-name="Gcommaaccent" unicode="&#x122;" horiz-adv-x="667"
d="M305 -229l-8 28c39 9 55 26 52 58h-36v78h82v-69c0 -57 -30 -86 -90 -95zM371 -10c-191 0 -314 145 -314 356v7c0 203 128 357 312 357c91 0 152 -26 212 -75l-45 -60c-43 38 -93 65 -169 65c-133 0 -232 -120 -232 -287v-5c0 -176 95 -290 239 -290c60 0 115 22 151 50
v197h-175v67h247v-300c-54 -44 -133 -82 -226 -82z" />
    <glyph glyph-name="gcommaaccent" unicode="&#x123;" horiz-adv-x="571"
d="M337 758l8 -28c-39 -9 -55 -26 -52 -58h36v-78h-82v69c0 57 30 86 90 95zM267 -152c-70 0 -137 18 -198 56l29 58c49 -32 108 -51 168 -51c98 0 159 52 159 156v76c-36 -58 -89 -107 -172 -107c-106 0 -205 88 -205 245v4c0 157 100 246 206 246c83 0 136 -48 171 -103
v93h72v-452c0 -71 -20 -124 -57 -161c-40 -40 -99 -60 -173 -60zM270 101c80 0 157 70 157 181v3c0 112 -77 181 -157 181c-82 0 -148 -67 -148 -181v-2c0 -113 67 -182 148 -182z" />
    <glyph glyph-name="Gdotaccent" unicode="&#x120;" horiz-adv-x="667"
d="M311 764v86h88v-86h-88zM371 -10c-191 0 -314 145 -314 356v7c0 203 128 357 312 357c91 0 152 -26 212 -75l-45 -60c-43 38 -93 65 -169 65c-133 0 -232 -120 -232 -287v-5c0 -176 95 -290 239 -290c60 0 115 22 151 50v197h-175v67h247v-300c-54 -44 -133 -82 -226 -82
z" />
    <glyph glyph-name="gdotaccent" unicode="&#x121;" horiz-adv-x="571"
d="M267 -152c-70 0 -137 18 -198 56l29 58c49 -32 108 -51 168 -51c98 0 159 52 159 156v76c-36 -58 -89 -107 -172 -107c-106 0 -205 88 -205 245v4c0 157 100 246 206 246c83 0 136 -48 171 -103v93h72v-452c0 -71 -20 -124 -57 -161c-40 -40 -99 -60 -173 -60zM270 101
c80 0 157 70 157 181v3c0 112 -77 181 -157 181c-82 0 -148 -67 -148 -181v-2c0 -113 67 -182 148 -182zM247 592v89h84v-89h-84z" />
    <glyph glyph-name="Hbar" unicode="&#x126;" horiz-adv-x="691"
d="M35 520v60h66v120h75v-120h338v120h75v-120h67v-60h-67v-520h-75v315h-338v-315h-75v520h-66zM176 384h338v137h-338v-137z" />
    <glyph glyph-name="hbar" unicode="&#x127;" horiz-adv-x="537"
d="M297 606h-151v-170c29 52 75 95 153 95c107 0 171 -76 171 -191v-340h-72v323c0 89 -44 143 -120 143s-132 -60 -132 -149v-317h-72v606h-62v53h62v63h72v-63h151v-53z" />
    <glyph glyph-name="Iacute" unicode="&#xcd;" horiz-adv-x="256"
d="M91 0v700h75v-700h-75zM99 755l90 123l74 -34l-106 -89h-58z" />
    <glyph glyph-name="iacute" unicode="&#xed;" horiz-adv-x="232"
d="M87 589l86 140l74 -35l-105 -105h-55zM80 0v521h72v-521h-72z" />
    <glyph glyph-name="Ibreve" unicode="&#x12c;" horiz-adv-x="256"
d="M91 0v700h75v-700h-75zM129 754c-74 0 -128 37 -134 105h56c10 -30 35 -47 78 -47s68 17 78 47h56c-6 -68 -60 -105 -134 -105z" />
    <glyph glyph-name="ibreve" unicode="&#x12d;" horiz-adv-x="232"
d="M80 0v521h72v-521h-72zM116 588c-73 0 -126 41 -133 116h53c10 -35 35 -59 80 -59s70 24 80 59h53c-7 -75 -60 -116 -133 -116z" />
    <glyph glyph-name="Icircumflex" unicode="&#xce;" horiz-adv-x="256"
d="M91 0v700h75v-700h-75zM-3 756l98 114h68l98 -114h-66l-67 59l-67 -59h-64z" />
    <glyph glyph-name="icircumflex" unicode="&#xee;" horiz-adv-x="232"
d="M-9 590l94 130h62l94 -130h-59l-67 69l-67 -69h-57zM80 0v521h72v-521h-72z" />
    <glyph glyph-name="Idieresis" unicode="&#xcf;" horiz-adv-x="256"
d="M91 0v700h75v-700h-75zM169 757v86h85v-86h-85zM3 757v86h86v-86h-86z" />
    <glyph glyph-name="idieresis" unicode="&#xef;" horiz-adv-x="232"
d="M153 592v89h81v-89h-81zM-2 592v89h81v-89h-81zM80 0v521h72v-521h-72z" />
    <glyph glyph-name="Idotaccent" unicode="&#x130;" horiz-adv-x="256"
d="M91 0v700h75v-700h-75zM85 757v86h88v-86h-88z" />
    <glyph glyph-name="dotlessi" unicode="&#x131;" horiz-adv-x="232"
d="M80 0v521h72v-521h-72z" />
    <glyph glyph-name="Igrave" unicode="&#xcc;" horiz-adv-x="256"
d="M91 0v700h75v-700h-75zM159 755h-59l-105 89l73 34z" />
    <glyph glyph-name="igrave" unicode="&#xec;" horiz-adv-x="232"
d="M80 0v521h72v-521h-72zM91 589l-105 105l74 35l86 -140h-55z" />
    <glyph glyph-name="Imacron" unicode="&#x12a;" horiz-adv-x="256"
d="M91 0v700h75v-700h-75zM-17 772v61h292v-61h-292z" />
    <glyph glyph-name="imacron" unicode="&#x12b;" horiz-adv-x="232"
d="M80 0v521h72v-521h-72zM-21 606v58h274v-58h-274z" />
    <glyph glyph-name="Iogonek" unicode="&#x12e;" horiz-adv-x="256"
d="M91 0v700h75v-700h-11c-28 -27 -40 -47 -40 -68c0 -26 19 -38 64 -40v-44c-7 -1 -12 -1 -16 -1c-73 2 -110 30 -110 72c0 30 16 54 44 81h-6z" />
    <glyph glyph-name="iogonek" unicode="&#x12f;" horiz-adv-x="232"
d="M80 0v521h72v-521h-9c-28 -27 -40 -47 -40 -68c0 -26 19 -38 64 -40v-44c-7 -1 -12 -1 -16 -1c-73 2 -110 30 -110 72c0 30 16 54 44 81h-5zM76 628v85h80v-85h-80z" />
    <glyph glyph-name="Kcommaaccent" unicode="&#x136;" horiz-adv-x="616"
d="M262 -224l-8 28c39 9 55 26 52 58h-36v78h82v-69c0 -57 -30 -86 -90 -95zM84 0v700h75v-404l332 404h93l-255 -306l269 -394h-91l-230 333l-118 -137v-196h-75z" />
    <glyph glyph-name="kcommaaccent" unicode="&#x137;" horiz-adv-x="493"
d="M208 -227l-8 28c39 9 55 26 52 58h-36v78h82v-69c0 -57 -30 -86 -90 -95zM74 0v722h72v-485l231 284h87l-183 -219l190 -302h-85l-154 245l-86 -101v-144h-72z" />
    <glyph glyph-name="Lacute" unicode="&#x139;" horiz-adv-x="519"
d="M104 755l90 123l74 -34l-106 -89h-58zM84 0v700h75v-631h325v-69h-400z" />
    <glyph glyph-name="lacute" unicode="&#x13a;" horiz-adv-x="232"
d="M89 768l90 123l74 -34l-106 -89h-58zM80 0v722h72v-722h-72z" />
    <glyph glyph-name="Lcaron" unicode="&#x13d;" horiz-adv-x="519"
d="M234 540l13 160h66v-3l-45 -157h-34zM84 0v700h75v-631h325v-69h-400z" />
    <glyph glyph-name="lcaron" unicode="&#x13e;" horiz-adv-x="232"
d="M205 576l13 160h66v-3l-45 -157h-34zM80 0v722h72v-722h-72z" />
    <glyph glyph-name="Lcommaaccent" unicode="&#x13b;" horiz-adv-x="519"
d="M231 -228l-8 28c39 9 55 26 52 58h-36v78h82v-69c0 -57 -30 -86 -90 -95zM84 0v700h75v-631h325v-69h-400z" />
    <glyph glyph-name="lcommaaccent" unicode="&#x13c;" horiz-adv-x="232"
d="M67 -228l-8 28c39 9 55 26 52 58h-36v78h82v-69c0 -57 -30 -86 -90 -95zM80 0v722h72v-722h-72z" />
    <glyph glyph-name="Ldot" unicode="&#x13f;" horiz-adv-x="519"
d="M350 321v90h83v-90h-83zM84 0v700h75v-631h325v-69h-400z" />
    <glyph glyph-name="ldot" unicode="&#x140;" horiz-adv-x="297"
d="M227 320v90h76v-90h-76zM80 0v722h72v-722h-72z" />
    <glyph glyph-name="Lslash" unicode="&#x141;" horiz-adv-x="543"
d="M331 394l-150 -75v-250h325v-69h-399v282l-68 -34v74l68 34v344h74v-307l150 76v-75z" />
    <glyph glyph-name="lslash" unicode="&#x142;" horiz-adv-x="278"
d="M244 389l-69 -39v-350h-72v309l-70 -39v74l70 39v339h72v-299l69 40v-74z" />
    <glyph glyph-name="Nacute" unicode="&#x143;" horiz-adv-x="679"
d="M309 752l90 123l74 -34l-106 -89h-58zM84 0v700h71l366 -551v551h74v-700h-63l-375 564v-564h-73z" />
    <glyph glyph-name="nacute" unicode="&#x144;" horiz-adv-x="537"
d="M241 589l86 140l74 -35l-105 -105h-55zM74 0v521h72v-85c29 52 76 95 154 95c106 0 170 -73 170 -190v-341h-72v321c0 93 -44 145 -120 145s-132 -60 -132 -149v-317h-72z" />
    <glyph glyph-name="Ncaron" unicode="&#x147;" horiz-adv-x="679"
d="M470 867l-98 -114h-68l-98 114h66l67 -59l67 59h64zM84 0v700h71l366 -551v551h74v-700h-63l-375 564v-564h-73z" />
    <glyph glyph-name="ncaron" unicode="&#x148;" horiz-adv-x="537"
d="M396 720l-94 -130h-62l-94 130h59l67 -69l67 69h57zM74 0v521h72v-85c29 52 76 95 154 95c106 0 170 -73 170 -190v-341h-72v321c0 93 -44 145 -120 145s-132 -60 -132 -149v-317h-72z" />
    <glyph glyph-name="Ncommaaccent" unicode="&#x145;" horiz-adv-x="679"
d="M289 -224l-8 28c39 9 55 26 52 58h-36v78h82v-69c0 -57 -30 -86 -90 -95zM84 0v700h71l366 -551v551h74v-700h-63l-375 564v-564h-73z" />
    <glyph glyph-name="ncommaaccent" unicode="&#x146;" horiz-adv-x="537"
d="M221 -227l-8 28c39 9 55 26 52 58h-36v78h82v-69c0 -57 -30 -86 -90 -95zM74 0v521h72v-85c29 52 76 95 154 95c106 0 170 -73 170 -190v-341h-72v321c0 93 -44 145 -120 145s-132 -60 -132 -149v-317h-72z" />
    <glyph glyph-name="Ntilde" unicode="&#xd1;" horiz-adv-x="679"
d="M407 753c-24 0 -47 10 -71 21c-20 9 -38 17 -51 17c-22 0 -32 -13 -45 -44l-47 13c18 63 43 94 84 94c23 0 46 -10 71 -22c20 -9 38 -16 51 -16c22 0 32 12 45 43l46 -13c-18 -63 -42 -93 -83 -93zM84 0v700h71l366 -551v551h74v-700h-63l-375 564v-564h-73z" />
    <glyph glyph-name="ntilde" unicode="&#xf1;" horiz-adv-x="537"
d="M74 0v521h72v-85c29 52 76 95 154 95c106 0 170 -73 170 -190v-341h-72v321c0 93 -44 145 -120 145s-132 -60 -132 -149v-317h-72zM337 589c-23 0 -44 10 -67 22c-21 12 -39 20 -53 20c-22 0 -32 -13 -44 -48l-45 13c18 69 42 98 83 98c23 0 44 -10 67 -22
c21 -11 39 -20 53 -20c22 0 32 14 44 47l45 -12c-18 -69 -42 -98 -83 -98z" />
    <glyph glyph-name="Oacute" unicode="&#xd3;" horiz-adv-x="716"
d="M327 762l90 123l74 -34l-106 -89h-58zM358 -11c-179 0 -301 151 -301 356v8c0 206 124 358 302 358s300 -151 300 -356v-8c0 -206 -123 -358 -301 -358zM359 58c129 0 223 119 223 288v7c0 169 -95 289 -224 289s-223 -119 -223 -288v-7c0 -169 95 -289 224 -289z" />
    <glyph glyph-name="oacute" unicode="&#xf3;" horiz-adv-x="555"
d="M247 589l86 140l74 -35l-105 -105h-55zM277 -11c-134 0 -231 115 -231 267v7c0 152 98 268 232 268s231 -115 231 -267v-6c0 -152 -98 -269 -232 -269zM278 54c92 0 158 88 158 203v5c0 117 -70 204 -159 204c-92 0 -157 -87 -157 -203v-5c0 -117 69 -204 158 -204z" />
    <glyph glyph-name="Obreve" unicode="&#x14e;" horiz-adv-x="716"
d="M357 761c-74 0 -128 37 -134 105h56c10 -30 35 -47 78 -47s68 17 78 47h56c-6 -68 -60 -105 -134 -105zM358 -11c-179 0 -301 151 -301 356v8c0 206 124 358 302 358s300 -151 300 -356v-8c0 -206 -123 -358 -301 -358zM359 58c129 0 223 119 223 288v7
c0 169 -95 289 -224 289s-223 -119 -223 -288v-7c0 -169 95 -289 224 -289z" />
    <glyph glyph-name="obreve" unicode="&#x14f;" horiz-adv-x="555"
d="M277 -11c-134 0 -231 115 -231 267v7c0 152 98 268 232 268s231 -115 231 -267v-6c0 -152 -98 -269 -232 -269zM278 54c92 0 158 88 158 203v5c0 117 -70 204 -159 204c-92 0 -157 -87 -157 -203v-5c0 -117 69 -204 158 -204zM277 588c-73 0 -126 41 -133 116h53
c10 -35 35 -59 80 -59s70 24 80 59h53c-7 -75 -60 -116 -133 -116z" />
    <glyph glyph-name="Ocircumflex" unicode="&#xd4;" horiz-adv-x="716"
d="M358 -11c-179 0 -301 151 -301 356v8c0 206 124 358 302 358s300 -151 300 -356v-8c0 -206 -123 -358 -301 -358zM359 58c129 0 223 119 223 288v7c0 169 -95 289 -224 289s-223 -119 -223 -288v-7c0 -169 95 -289 224 -289zM225 763l98 114h68l98 -114h-66l-67 59
l-67 -59h-64z" />
    <glyph glyph-name="ocircumflex" unicode="&#xf4;" horiz-adv-x="555"
d="M152 590l94 130h62l94 -130h-59l-67 69l-67 -69h-57zM277 -11c-134 0 -231 115 -231 267v7c0 152 98 268 232 268s231 -115 231 -267v-6c0 -152 -98 -269 -232 -269zM278 54c92 0 158 88 158 203v5c0 117 -70 204 -159 204c-92 0 -157 -87 -157 -203v-5
c0 -117 69 -204 158 -204z" />
    <glyph glyph-name="Odieresis" unicode="&#xd6;" horiz-adv-x="716"
d="M398 764v86h85v-86h-85zM232 764v86h86v-86h-86zM358 -11c-179 0 -301 151 -301 356v8c0 206 124 358 302 358s300 -151 300 -356v-8c0 -206 -123 -358 -301 -358zM359 58c129 0 223 119 223 288v7c0 169 -95 289 -224 289s-223 -119 -223 -288v-7
c0 -169 95 -289 224 -289z" />
    <glyph glyph-name="odieresis" unicode="&#xf6;" horiz-adv-x="555"
d="M314 592v89h81v-89h-81zM159 592v89h81v-89h-81zM277 -11c-134 0 -231 115 -231 267v7c0 152 98 268 232 268s231 -115 231 -267v-6c0 -152 -98 -269 -232 -269zM278 54c92 0 158 88 158 203v5c0 117 -70 204 -159 204c-92 0 -157 -87 -157 -203v-5
c0 -117 69 -204 158 -204z" />
    <glyph glyph-name="OE" unicode="&#x152;" horiz-adv-x="958"
d="M386 0c-195 0 -329 140 -329 346v7c0 205 134 347 329 347h517v-69h-340v-244h304v-68h-304v-250h344v-69h-521zM386 69h102v562h-102c-152 0 -251 -111 -251 -277v-7c0 -166 100 -278 251 -278z" />
    <glyph glyph-name="oe" unicode="&#x153;" horiz-adv-x="901"
d="M275 -11c-129 0 -229 114 -229 267v7c0 152 101 268 231 268c86 0 155 -51 191 -130c35 81 102 130 182 130c129 0 208 -113 208 -269c0 -6 0 -21 -1 -30h-350c8 -116 78 -179 161 -179c58 0 99 24 135 60l41 -46c-49 -48 -101 -78 -179 -78c-86 0 -160 50 -197 132
c-36 -79 -107 -132 -193 -132zM507 288h279c-5 99 -53 180 -138 180c-76 0 -134 -71 -141 -180zM278 54c91 0 156 88 156 203v5c0 117 -68 204 -158 204c-92 0 -156 -87 -156 -203v-5c0 -117 68 -204 158 -204z" />
    <glyph glyph-name="Ograve" unicode="&#xd2;" horiz-adv-x="716"
d="M388 762h-59l-105 89l73 34zM358 -11c-179 0 -301 151 -301 356v8c0 206 124 358 302 358s300 -151 300 -356v-8c0 -206 -123 -358 -301 -358zM359 58c129 0 223 119 223 288v7c0 169 -95 289 -224 289s-223 -119 -223 -288v-7c0 -169 95 -289 224 -289z" />
    <glyph glyph-name="ograve" unicode="&#xf2;" horiz-adv-x="555"
d="M277 -11c-134 0 -231 115 -231 267v7c0 152 98 268 232 268s231 -115 231 -267v-6c0 -152 -98 -269 -232 -269zM278 54c92 0 158 88 158 203v5c0 117 -70 204 -159 204c-92 0 -157 -87 -157 -203v-5c0 -117 69 -204 158 -204zM253 589l-105 105l74 35l86 -140h-55z" />
    <glyph glyph-name="Ohungarumlaut" unicode="&#x150;" horiz-adv-x="716"
d="M358 -11c-179 0 -301 151 -301 356v8c0 206 124 358 302 358s300 -151 300 -356v-8c0 -206 -123 -358 -301 -358zM359 58c129 0 223 119 223 288v7c0 169 -95 289 -224 289s-223 -119 -223 -288v-7c0 -169 95 -289 224 -289zM252 762l91 123l71 -34l-104 -89h-58z
M389 762l91 123l71 -34l-105 -89h-57z" />
    <glyph glyph-name="ohungarumlaut" unicode="&#x151;" horiz-adv-x="555"
d="M308 589l86 140l69 -34l-101 -106h-54zM175 589l86 140l69 -34l-101 -106h-54zM277 -11c-134 0 -231 115 -231 267v7c0 152 98 268 232 268s231 -115 231 -267v-6c0 -152 -98 -269 -232 -269zM278 54c92 0 158 88 158 203v5c0 117 -70 204 -159 204
c-92 0 -157 -87 -157 -203v-5c0 -117 69 -204 158 -204z" />
    <glyph glyph-name="Omacron" unicode="&#x14c;" horiz-adv-x="716"
d="M211 779v61h292v-61h-292zM358 -11c-179 0 -301 151 -301 356v8c0 206 124 358 302 358s300 -151 300 -356v-8c0 -206 -123 -358 -301 -358zM359 58c129 0 223 119 223 288v7c0 169 -95 289 -224 289s-223 -119 -223 -288v-7c0 -169 95 -289 224 -289z" />
    <glyph glyph-name="omacron" unicode="&#x14d;" horiz-adv-x="555"
d="M140 606v58h274v-58h-274zM277 -11c-134 0 -231 115 -231 267v7c0 152 98 268 232 268s231 -115 231 -267v-6c0 -152 -98 -269 -232 -269zM278 54c92 0 158 88 158 203v5c0 117 -70 204 -159 204c-92 0 -157 -87 -157 -203v-5c0 -117 69 -204 158 -204z" />
    <glyph glyph-name="Oslash" unicode="&#xd8;" horiz-adv-x="716"
d="M591 706h74l-81 -107c48 -62 75 -148 75 -244v-8c0 -205 -123 -358 -302 -358c-72 0 -134 24 -183 67l-49 -62h-73l80 106c-48 63 -75 148 -75 245v8c0 205 123 358 302 358c72 0 134 -25 183 -67zM133 348c0 -73 17 -137 47 -186l320 422c-38 38 -87 60 -143 60
c-130 0 -224 -119 -224 -290v-6zM359 56c130 0 224 119 224 290v6c0 72 -17 136 -47 185l-319 -422c38 -38 87 -59 142 -59z" />
    <glyph glyph-name="oslash" unicode="&#xf8;" horiz-adv-x="555"
d="M451 527h69l-67 -85c35 -46 56 -108 56 -178v-6c0 -153 -100 -269 -232 -269c-53 0 -100 18 -138 49l-35 -43h-68l65 83c-35 47 -55 108 -55 178v7c0 152 100 268 232 268c52 0 99 -18 137 -49zM278 53c94 0 160 88 160 204v4c0 49 -12 91 -31 125l-227 -293
c27 -25 60 -40 98 -40zM118 259c0 -48 11 -90 29 -123l228 291c-27 26 -61 41 -98 41c-94 0 -159 -88 -159 -205v-4z" />
    <glyph glyph-name="Oslashacute" unicode="&#x1fe;" horiz-adv-x="716"
d="M591 706h74l-81 -107c48 -62 75 -148 75 -244v-8c0 -205 -123 -358 -302 -358c-72 0 -134 24 -183 67l-49 -62h-73l80 106c-48 63 -75 148 -75 245v8c0 205 123 358 302 358c72 0 134 -25 183 -67zM133 348c0 -73 17 -137 47 -186l320 422c-38 38 -87 60 -143 60
c-130 0 -224 -119 -224 -290v-6zM359 56c130 0 224 119 224 290v6c0 72 -17 136 -47 185l-319 -422c38 -38 87 -59 142 -59zM328 762l90 123l74 -34l-106 -89h-58z" />
    <glyph glyph-name="oslashacute" unicode="&#x1ff;" horiz-adv-x="555"
d="M451 527h69l-67 -85c35 -46 56 -108 56 -178v-6c0 -153 -100 -269 -232 -269c-53 0 -100 18 -138 49l-35 -43h-68l65 83c-35 47 -55 108 -55 178v7c0 152 100 268 232 268c52 0 99 -18 137 -49zM278 53c94 0 160 88 160 204v4c0 49 -12 91 -31 125l-227 -293
c27 -25 60 -40 98 -40zM118 259c0 -48 11 -90 29 -123l228 291c-27 26 -61 41 -98 41c-94 0 -159 -88 -159 -205v-4zM247 589l86 140l74 -35l-105 -105h-55z" />
    <glyph glyph-name="Otilde" unicode="&#xd5;" horiz-adv-x="716"
d="M426 763c-24 0 -47 10 -71 21c-20 9 -38 17 -51 17c-22 0 -32 -13 -45 -44l-47 13c18 63 43 94 84 94c23 0 46 -10 71 -22c20 -9 38 -16 51 -16c22 0 32 12 45 43l46 -13c-18 -63 -42 -93 -83 -93zM358 -11c-179 0 -301 151 -301 356v8c0 206 124 358 302 358
s300 -151 300 -356v-8c0 -206 -123 -358 -301 -358zM359 58c129 0 223 119 223 288v7c0 169 -95 289 -224 289s-223 -119 -223 -288v-7c0 -169 95 -289 224 -289z" />
    <glyph glyph-name="otilde" unicode="&#xf5;" horiz-adv-x="555"
d="M277 -11c-134 0 -231 115 -231 267v7c0 152 98 268 232 268s231 -115 231 -267v-6c0 -152 -98 -269 -232 -269zM278 54c92 0 158 88 158 203v5c0 117 -70 204 -159 204c-92 0 -157 -87 -157 -203v-5c0 -117 69 -204 158 -204zM343 589c-23 0 -44 10 -67 22
c-21 12 -39 20 -53 20c-22 0 -32 -13 -44 -48l-45 13c18 69 42 98 83 98c23 0 44 -10 67 -22c21 -11 39 -20 53 -20c22 0 32 14 44 47l45 -12c-18 -69 -42 -98 -83 -98z" />
    <glyph glyph-name="Racute" unicode="&#x154;" horiz-adv-x="621"
d="M84 0v700h239c80 0 144 -24 184 -65c35 -35 55 -85 55 -144v-2c0 -111 -69 -178 -166 -202l188 -287h-90l-176 272h-159v-272h-75zM159 340h151c114 0 177 57 177 146v2c0 92 -64 143 -169 143h-159v-291zM269 755l90 123l74 -34l-106 -89h-58z" />
    <glyph glyph-name="racute" unicode="&#x155;" horiz-adv-x="351"
d="M158 589l86 140l74 -35l-105 -105h-55zM74 0v521h72v-115c31 73 94 126 179 122v-78h-4c-97 0 -175 -68 -175 -202v-248h-72z" />
    <glyph glyph-name="Rcaron" unicode="&#x158;" horiz-adv-x="621"
d="M84 0v700h239c80 0 144 -24 184 -65c35 -35 55 -85 55 -144v-2c0 -111 -69 -178 -166 -202l188 -287h-90l-176 272h-159v-272h-75zM159 340h151c114 0 177 57 177 146v2c0 92 -64 143 -169 143h-159v-291zM431 870l-98 -114h-68l-98 114h66l67 -59l67 59h64z" />
    <glyph glyph-name="rcaron" unicode="&#x159;" horiz-adv-x="351"
d="M313 720l-94 -130h-62l-94 130h59l67 -69l67 69h57zM74 0v521h72v-115c31 73 94 126 179 122v-78h-4c-97 0 -175 -68 -175 -202v-248h-72z" />
    <glyph glyph-name="Rcommaaccent" unicode="&#x156;" horiz-adv-x="621"
d="M84 0v700h239c80 0 144 -24 184 -65c35 -35 55 -85 55 -144v-2c0 -111 -69 -178 -166 -202l188 -287h-90l-176 272h-159v-272h-75zM159 340h151c114 0 177 57 177 146v2c0 92 -64 143 -169 143h-159v-291zM251 -224l-8 28c39 9 55 26 52 58h-36v78h82v-69
c0 -57 -30 -86 -90 -95z" />
    <glyph glyph-name="rcommaaccent" unicode="&#x157;" horiz-adv-x="351"
d="M67 -228l-8 28c39 9 55 26 52 58h-36v78h82v-69c0 -57 -30 -86 -90 -95zM74 0v521h72v-115c31 73 94 126 179 122v-78h-4c-97 0 -175 -68 -175 -202v-248h-72z" />
    <glyph glyph-name="Sacute" unicode="&#x15a;" horiz-adv-x="547"
d="M280 -10c-90 0 -170 31 -243 99l47 57c58 -54 118 -87 197 -87c84 0 140 51 140 118v1c0 58 -28 95 -155 140c-145 54 -202 106 -202 205v2c0 105 88 185 211 185c81 0 148 -25 210 -79l-45 -58c-52 45 -107 68 -168 68c-80 0 -132 -49 -132 -109v-2
c0 -61 31 -96 163 -144c142 -53 194 -110 194 -203v-2c0 -112 -92 -191 -217 -191zM250 762l90 123l74 -34l-106 -89h-58z" />
    <glyph glyph-name="sacute" unicode="&#x15b;" horiz-adv-x="428"
d="M187 589l86 140l74 -35l-105 -105h-55zM215 -9c-64 0 -133 25 -188 73l38 53c49 -41 100 -63 152 -63c57 0 97 32 97 81v1c0 46 -43 70 -113 99c-83 36 -149 69 -149 150v2c0 85 69 142 162 142c59 0 120 -23 164 -56l-35 -55c-40 29 -85 49 -131 49
c-55 0 -90 -32 -90 -73v-2c0 -44 45 -66 116 -96c86 -38 146 -74 146 -153v-2c0 -93 -75 -150 -169 -150z" />
    <glyph glyph-name="Scaron" unicode="&#x160;" horiz-adv-x="547"
d="M280 -10c-90 0 -170 31 -243 99l47 57c58 -54 118 -87 197 -87c84 0 140 51 140 118v1c0 58 -28 95 -155 140c-145 54 -202 106 -202 205v2c0 105 88 185 211 185c81 0 148 -25 210 -79l-45 -58c-52 45 -107 68 -168 68c-80 0 -132 -49 -132 -109v-2
c0 -61 31 -96 163 -144c142 -53 194 -110 194 -203v-2c0 -112 -92 -191 -217 -191zM412 877l-98 -114h-68l-98 114h66l67 -59l67 59h64z" />
    <glyph glyph-name="scaron" unicode="&#x161;" horiz-adv-x="428"
d="M342 720l-94 -130h-62l-94 130h59l67 -69l67 69h57zM215 -9c-64 0 -133 25 -188 73l38 53c49 -41 100 -63 152 -63c57 0 97 32 97 81v1c0 46 -43 70 -113 99c-83 36 -149 69 -149 150v2c0 85 69 142 162 142c59 0 120 -23 164 -56l-35 -55c-40 29 -85 49 -131 49
c-55 0 -90 -32 -90 -73v-2c0 -44 45 -66 116 -96c86 -38 146 -74 146 -153v-2c0 -93 -75 -150 -169 -150z" />
    <glyph glyph-name="Scedilla" unicode="&#x15e;" horiz-adv-x="547"
d="M252 -142l-70 31l67 103c-78 6 -148 36 -212 97l47 57c58 -54 118 -87 197 -87c84 0 140 51 140 118v1c0 58 -28 95 -155 140c-145 54 -202 106 -202 205v2c0 105 88 185 211 185c81 0 148 -25 210 -79l-45 -58c-52 45 -107 68 -168 68c-80 0 -132 -49 -132 -109v-2
c0 -61 31 -96 163 -144c142 -53 194 -110 194 -203v-2c0 -103 -78 -178 -187 -189z" />
    <glyph glyph-name="scedilla" unicode="&#x15f;" horiz-adv-x="428"
d="M182 -142l-70 31l69 105c-54 6 -109 30 -154 70l38 53c49 -41 100 -63 152 -63c57 0 97 32 97 81v1c0 46 -43 70 -113 99c-83 36 -149 69 -149 150v2c0 85 69 142 162 142c59 0 120 -23 164 -56l-35 -55c-40 29 -85 49 -131 49c-55 0 -90 -32 -90 -73v-2
c0 -44 45 -66 116 -96c86 -38 146 -74 146 -153v-2c0 -85 -62 -140 -144 -148z" />
    <glyph glyph-name="Scommaaccent" unicode="&#x218;" horiz-adv-x="547"
d="M226 -228l-8 28c39 9 55 26 52 58h-36v78h82v-69c0 -57 -30 -86 -90 -95zM280 -10c-90 0 -170 31 -243 99l47 57c58 -54 118 -87 197 -87c84 0 140 51 140 118v1c0 58 -28 95 -155 140c-145 54 -202 106 -202 205v2c0 105 88 185 211 185c81 0 148 -25 210 -79l-45 -58
c-52 45 -107 68 -168 68c-80 0 -132 -49 -132 -109v-2c0 -61 31 -96 163 -144c142 -53 194 -110 194 -203v-2c0 -112 -92 -191 -217 -191z" />
    <glyph glyph-name="scommaaccent" unicode="&#x219;" horiz-adv-x="428"
d="M166 -228l-8 28c39 9 55 26 52 58h-36v78h82v-69c0 -57 -30 -86 -90 -95zM215 -9c-64 0 -133 25 -188 73l38 53c49 -41 100 -63 152 -63c57 0 97 32 97 81v1c0 46 -43 70 -113 99c-83 36 -149 69 -149 150v2c0 85 69 142 162 142c59 0 120 -23 164 -56l-35 -55
c-40 29 -85 49 -131 49c-55 0 -90 -32 -90 -73v-2c0 -44 45 -66 116 -96c86 -38 146 -74 146 -153v-2c0 -93 -75 -150 -169 -150z" />
    <glyph glyph-name="Tcaron" unicode="&#x164;" horiz-adv-x="544"
d="M403 870l-98 -114h-68l-98 114h66l67 -59l67 59h64zM234 0v630h-196v70h468v-70h-197v-630h-75z" />
    <glyph glyph-name="tcaron" unicode="&#x165;" horiz-adv-x="347"
d="M242 576l13 160h66v-3l-45 -157h-34zM227 -8c-74 0 -130 36 -130 129v336h-63v64h63v152h72v-152h136v-64h-136v-324c0 -55 30 -75 75 -75c20 0 40 5 61 14v-62c-23 -11 -48 -18 -78 -18z" />
    <glyph glyph-name="Tcommaaccent" unicode="&#x162;" horiz-adv-x="544"
d="M222 -228l-8 28c39 9 55 26 52 58h-36v78h82v-69c0 -57 -30 -86 -90 -95zM234 0v630h-196v70h468v-70h-197v-630h-75z" />
    <glyph glyph-name="tcommaaccent" unicode="&#x163;" horiz-adv-x="347"
d="M146 -228l-8 28c39 9 55 26 52 58h-36v78h82v-69c0 -57 -30 -86 -90 -95zM227 -8c-74 0 -130 36 -130 129v336h-63v64h63v152h72v-152h136v-64h-136v-324c0 -55 30 -75 75 -75c20 0 40 5 61 14v-62c-23 -11 -48 -18 -78 -18z" />
    <glyph glyph-name="Thorn" unicode="&#xde;" horiz-adv-x="581"
d="M84 0v700h76v-119h135c149 0 246 -83 246 -221v-2c0 -148 -112 -230 -255 -230h-127v-128h-75zM159 196h129c109 0 177 63 177 159v2c0 101 -68 155 -174 155h-132v-316z" />
    <glyph glyph-name="thorn" unicode="&#xfe;" horiz-adv-x="571"
d="M74 -150v872h72v-301c35 59 87 110 168 110c106 0 209 -94 209 -265v-10c0 -171 -103 -266 -209 -266c-82 0 -134 50 -168 107v-247h-72zM299 55c83 0 150 75 150 201v8c0 124 -69 202 -150 202c-80 0 -156 -79 -156 -201v-10c0 -122 76 -200 156 -200z" />
    <glyph glyph-name="Uacute" unicode="&#xda;" horiz-adv-x="654"
d="M296 752l90 123l74 -34l-106 -89h-58zM326 -11c-149 0 -250 96 -250 272v439h75v-437c0 -132 67 -205 177 -205c107 0 175 69 175 202v440h75v-435c0 -180 -101 -276 -252 -276z" />
    <glyph glyph-name="uacute" unicode="&#xfa;" horiz-adv-x="537"
d="M234 588l86 140l74 -35l-105 -105h-55zM237 -10c-106 0 -170 73 -170 189v342h72v-321c0 -93 44 -145 120 -145s132 59 132 148v318h72v-521h-72v85c-29 -52 -76 -95 -154 -95z" />
    <glyph glyph-name="Ubreve" unicode="&#x16c;" horiz-adv-x="654"
d="M326 749c-74 0 -128 37 -134 105h56c10 -30 35 -47 78 -47s68 17 78 47h56c-6 -68 -60 -105 -134 -105zM326 -11c-149 0 -250 96 -250 272v439h75v-437c0 -132 67 -205 177 -205c107 0 175 69 175 202v440h75v-435c0 -180 -101 -276 -252 -276z" />
    <glyph glyph-name="ubreve" unicode="&#x16d;" horiz-adv-x="537"
d="M237 -10c-106 0 -170 73 -170 189v342h72v-321c0 -93 44 -145 120 -145s132 59 132 148v318h72v-521h-72v85c-29 -52 -76 -95 -154 -95zM264 587c-73 0 -126 41 -133 116h53c10 -35 35 -59 80 -59s70 24 80 59h53c-7 -75 -60 -116 -133 -116z" />
    <glyph glyph-name="Ucircumflex" unicode="&#xdb;" horiz-adv-x="654"
d="M326 -11c-149 0 -250 96 -250 272v439h75v-437c0 -132 67 -205 177 -205c107 0 175 69 175 202v440h75v-435c0 -180 -101 -276 -252 -276zM194 753l98 114h68l98 -114h-66l-67 59l-67 -59h-64z" />
    <glyph glyph-name="ucircumflex" unicode="&#xfb;" horiz-adv-x="537"
d="M139 589l94 130h62l94 -130h-59l-67 69l-67 -69h-57zM237 -10c-106 0 -170 73 -170 189v342h72v-321c0 -93 44 -145 120 -145s132 59 132 148v318h72v-521h-72v85c-29 -52 -76 -95 -154 -95z" />
    <glyph glyph-name="Udieresis" unicode="&#xdc;" horiz-adv-x="654"
d="M367 754v86h85v-86h-85zM201 754v86h86v-86h-86zM326 -11c-149 0 -250 96 -250 272v439h75v-437c0 -132 67 -205 177 -205c107 0 175 69 175 202v440h75v-435c0 -180 -101 -276 -252 -276z" />
    <glyph glyph-name="udieresis" unicode="&#xfc;" horiz-adv-x="537"
d="M301 591v89h81v-89h-81zM146 591v89h81v-89h-81zM237 -10c-106 0 -170 73 -170 189v342h72v-321c0 -93 44 -145 120 -145s132 59 132 148v318h72v-521h-72v85c-29 -52 -76 -95 -154 -95z" />
    <glyph glyph-name="Ugrave" unicode="&#xd9;" horiz-adv-x="654"
d="M357 752h-59l-105 89l73 34zM326 -11c-149 0 -250 96 -250 272v439h75v-437c0 -132 67 -205 177 -205c107 0 175 69 175 202v440h75v-435c0 -180 -101 -276 -252 -276z" />
    <glyph glyph-name="ugrave" unicode="&#xf9;" horiz-adv-x="537"
d="M237 -10c-106 0 -170 73 -170 189v342h72v-321c0 -93 44 -145 120 -145s132 59 132 148v318h72v-521h-72v85c-29 -52 -76 -95 -154 -95zM240 588l-105 105l74 35l86 -140h-55z" />
    <glyph glyph-name="Uhungarumlaut" unicode="&#x170;" horiz-adv-x="654"
d="M326 -11c-149 0 -250 96 -250 272v439h75v-437c0 -132 67 -205 177 -205c107 0 175 69 175 202v440h75v-435c0 -180 -101 -276 -252 -276zM220 752l91 123l71 -34l-104 -89h-58zM357 752l91 123l71 -34l-105 -89h-57z" />
    <glyph glyph-name="uhungarumlaut" unicode="&#x171;" horiz-adv-x="537"
d="M237 -10c-106 0 -170 73 -170 189v342h72v-321c0 -93 44 -145 120 -145s132 59 132 148v318h72v-521h-72v85c-29 -52 -76 -95 -154 -95zM295 588l86 140l69 -34l-101 -106h-54zM162 588l86 140l69 -34l-101 -106h-54z" />
    <glyph glyph-name="Umacron" unicode="&#x16a;" horiz-adv-x="654"
d="M180 769v61h292v-61h-292zM326 -11c-149 0 -250 96 -250 272v439h75v-437c0 -132 67 -205 177 -205c107 0 175 69 175 202v440h75v-435c0 -180 -101 -276 -252 -276z" />
    <glyph glyph-name="umacron" unicode="&#x16b;" horiz-adv-x="537"
d="M237 -10c-106 0 -170 73 -170 189v342h72v-321c0 -93 44 -145 120 -145s132 59 132 148v318h72v-521h-72v85c-29 -52 -76 -95 -154 -95zM127 605v58h274v-58h-274z" />
    <glyph glyph-name="Uogonek" unicode="&#x172;" horiz-adv-x="654"
d="M384 -108v-44c-7 -1 -12 -1 -16 -1c-73 2 -110 30 -110 72c0 26 12 48 35 72c-131 13 -217 107 -217 270v439h75v-437c0 -132 67 -205 177 -205c107 0 175 69 175 202v440h75v-435c0 -170 -90 -265 -227 -275c-21 -23 -31 -39 -31 -58c0 -26 19 -38 64 -40z" />
    <glyph glyph-name="uogonek" unicode="&#x173;" horiz-adv-x="537"
d="M237 -10c-106 0 -170 73 -170 189v342h72v-321c0 -93 44 -145 120 -145s132 59 132 148v318h72v-521h-13c-28 -27 -40 -47 -40 -68c0 -26 19 -38 64 -40v-44c-7 -1 -12 -1 -16 -1c-73 2 -110 30 -110 72c0 30 16 54 44 81h-1v85c-29 -52 -76 -95 -154 -95z" />
    <glyph glyph-name="Uring" unicode="&#x16e;" horiz-adv-x="654"
d="M326 -11c-149 0 -250 96 -250 272v439h75v-437c0 -132 67 -205 177 -205c107 0 175 69 175 202v440h75v-435c0 -180 -101 -276 -252 -276zM326 738c-56 0 -102 39 -102 92s47 92 102 92c56 0 102 -39 102 -92s-47 -92 -102 -92zM326 773c35 0 60 25 60 57s-25 56 -60 56
s-60 -24 -60 -56s25 -57 60 -57z" />
    <glyph glyph-name="uring" unicode="&#x16f;" horiz-adv-x="537"
d="M264 576c-55 0 -100 44 -100 97c0 54 45 98 100 98s100 -44 100 -98c0 -53 -45 -97 -100 -97zM264 610c34 0 62 28 62 63s-28 64 -62 64s-62 -29 -62 -64s28 -63 62 -63zM237 -10c-106 0 -170 73 -170 189v342h72v-321c0 -93 44 -145 120 -145s132 59 132 148v318h72
v-521h-72v85c-29 -52 -76 -95 -154 -95z" />
    <glyph glyph-name="Wacute" unicode="&#x1e82;" horiz-adv-x="956"
d="M447 755l90 123l74 -34l-106 -89h-58zM248 -5l-210 705h81l165 -576l163 578h64l164 -578l165 576h77l-209 -705h-66l-164 565l-164 -565h-66z" />
    <glyph glyph-name="wacute" unicode="&#x1e83;" horiz-adv-x="753"
d="M346 589l86 140l74 -35l-105 -105h-55zM193 -4l-156 525h76l115 -415l119 416h61l119 -416l116 415h73l-156 -525h-65l-118 406l-119 -406h-65z" />
    <glyph glyph-name="Wcircumflex" unicode="&#x174;" horiz-adv-x="956"
d="M248 -5l-210 705h81l165 -576l163 578h64l164 -578l165 576h77l-209 -705h-66l-164 565l-164 -565h-66zM345 756l98 114h68l98 -114h-66l-67 59l-67 -59h-64z" />
    <glyph glyph-name="wcircumflex" unicode="&#x175;" horiz-adv-x="753"
d="M251 589l94 130h62l94 -130h-59l-67 69l-67 -69h-57zM193 -4l-156 525h76l115 -415l119 416h61l119 -416l116 415h73l-156 -525h-65l-118 406l-119 -406h-65z" />
    <glyph glyph-name="Wdieresis" unicode="&#x1e84;" horiz-adv-x="956"
d="M517 757v86h85v-86h-85zM351 757v86h86v-86h-86zM248 -5l-210 705h81l165 -576l163 578h64l164 -578l165 576h77l-209 -705h-66l-164 565l-164 -565h-66z" />
    <glyph glyph-name="wdieresis" unicode="&#x1e85;" horiz-adv-x="753"
d="M413 592v89h81v-89h-81zM258 592v89h81v-89h-81zM193 -4l-156 525h76l115 -415l119 416h61l119 -416l116 415h73l-156 -525h-65l-118 406l-119 -406h-65z" />
    <glyph glyph-name="Wgrave" unicode="&#x1e80;" horiz-adv-x="956"
d="M507 755h-59l-105 89l73 34zM248 -5l-210 705h81l165 -576l163 578h64l164 -578l165 576h77l-209 -705h-66l-164 565l-164 -565h-66z" />
    <glyph glyph-name="wgrave" unicode="&#x1e81;" horiz-adv-x="753"
d="M193 -4l-156 525h76l115 -415l119 416h61l119 -416l116 415h73l-156 -525h-65l-118 406l-119 -406h-65zM350 589l-105 105l74 35l86 -140h-55z" />
    <glyph glyph-name="Yacute" unicode="&#xdd;" horiz-adv-x="608"
d="M266 0v282l-246 418h87l198 -342l198 342h85l-246 -416v-284h-76zM273 752l90 123l74 -34l-106 -89h-58z" />
    <glyph glyph-name="yacute" unicode="&#xfd;" horiz-adv-x="513"
d="M264 92l140 429h77l-185 -530c-37 -108 -82 -145 -152 -145c-33 0 -64 8 -94 24l22 60c20 -11 42 -19 68 -19c39 0 64 22 90 89l-200 521h78zM228 588l86 140l74 -35l-105 -105h-55z" />
    <glyph glyph-name="Ycircumflex" unicode="&#x176;" horiz-adv-x="608"
d="M266 0v282l-246 418h87l198 -342l198 342h85l-246 -416v-284h-76zM172 753l98 114h68l98 -114h-66l-67 59l-67 -59h-64z" />
    <glyph glyph-name="ycircumflex" unicode="&#x177;" horiz-adv-x="513"
d="M264 92l140 429h77l-185 -530c-37 -108 -82 -145 -152 -145c-33 0 -64 8 -94 24l22 60c20 -11 42 -19 68 -19c39 0 64 22 90 89l-200 521h78zM133 589l94 130h62l94 -130h-59l-67 69l-67 -69h-57z" />
    <glyph glyph-name="Ydieresis" unicode="&#x178;" horiz-adv-x="608"
d="M266 0v282l-246 418h87l198 -342l198 342h85l-246 -416v-284h-76zM344 754v86h85v-86h-85zM178 754v86h86v-86h-86z" />
    <glyph glyph-name="ydieresis" unicode="&#xff;" horiz-adv-x="513"
d="M264 92l140 429h77l-185 -530c-37 -108 -82 -145 -152 -145c-33 0 -64 8 -94 24l22 60c20 -11 42 -19 68 -19c39 0 64 22 90 89l-200 521h78zM295 591v89h81v-89h-81zM140 591v89h81v-89h-81z" />
    <glyph glyph-name="Ygrave" unicode="&#x1ef2;" horiz-adv-x="608"
d="M266 0v282l-246 418h87l198 -342l198 342h85l-246 -416v-284h-76zM334 752h-59l-105 89l73 34z" />
    <glyph glyph-name="ygrave" unicode="&#x1ef3;" horiz-adv-x="513"
d="M264 92l140 429h77l-185 -530c-37 -108 -82 -145 -152 -145c-33 0 -64 8 -94 24l22 60c20 -11 42 -19 68 -19c39 0 64 22 90 89l-200 521h78zM233 588l-105 105l74 35l86 -140h-55z" />
    <glyph glyph-name="Zacute" unicode="&#x179;" horiz-adv-x="585"
d="M55 0v51l380 581h-366v68h463v-51l-380 -581h380v-68h-477zM269 755l90 123l74 -34l-106 -89h-58z" />
    <glyph glyph-name="zacute" unicode="&#x17a;" horiz-adv-x="470"
d="M209 589l86 140l74 -35l-105 -105h-55zM45 0v47l289 412h-278v62h370v-47l-289 -412h288v-62h-380z" />
    <glyph glyph-name="Zcaron" unicode="&#x17d;" horiz-adv-x="585"
d="M431 870l-98 -114h-68l-98 114h66l67 -59l67 59h64zM55 0v51l380 581h-366v68h463v-51l-380 -581h380v-68h-477z" />
    <glyph glyph-name="zcaron" unicode="&#x17e;" horiz-adv-x="470"
d="M364 720l-94 -130h-62l-94 130h59l67 -69l67 69h57zM45 0v47l289 412h-278v62h370v-47l-289 -412h288v-62h-380z" />
    <glyph glyph-name="Zdotaccent" unicode="&#x17b;" horiz-adv-x="585"
d="M255 757v86h88v-86h-88zM55 0v51l380 581h-366v68h463v-51l-380 -581h380v-68h-477z" />
    <glyph glyph-name="zdotaccent" unicode="&#x17c;" horiz-adv-x="470"
d="M45 0v47l289 412h-278v62h370v-47l-289 -412h288v-62h-380zM197 592v89h84v-89h-84z" />
    <glyph glyph-name="schwa" unicode="&#x259;" horiz-adv-x="512"
d="M235 531c127 0 231 -102 231 -267v-5c0 -159 -93 -270 -215 -270c-131 0 -209 112 -209 269c0 7 0 21 1 30h350c-8 115 -79 179 -161 179c-57 0 -99 -24 -135 -60l-41 46c47 48 101 78 179 78zM393 232h-279c5 -99 52 -180 137 -180c77 0 135 71 142 180z" />
    <glyph glyph-name="germandbls" unicode="&#xdf;" horiz-adv-x="540"
d="M251 -2v59c106 5 167 52 167 134v2c0 80 -63 127 -167 141v53c81 31 132 86 132 160v2c0 70 -47 114 -113 114c-73 0 -124 -59 -124 -154v-509h-72v507c0 134 77 221 200 221c111 0 182 -74 182 -173v-3c0 -92 -60 -151 -127 -181c88 -23 163 -76 163 -177v-4
c0 -119 -91 -192 -241 -192z" />
    <glyph glyph-name="zero" unicode="0" horiz-adv-x="615"
d="M307 -11c-156 0 -253 146 -253 356v8c0 210 99 358 254 358s253 -146 253 -356v-8c0 -210 -99 -358 -254 -358zM308 57c107 0 176 120 176 288v8c0 168 -71 290 -177 290c-107 0 -176 -120 -176 -288v-8c0 -168 70 -290 177 -290z" />
    <glyph glyph-name="one" unicode="1" horiz-adv-x="316"
d="M153 0v624l-114 -40l-13 65l145 55h56v-704h-74z" />
    <glyph glyph-name="two" unicode="2" horiz-adv-x="520"
d="M42 0v58l226 252c84 90 116 141 116 206c0 77 -56 125 -126 125c-64 0 -110 -34 -157 -100l-52 44c52 78 116 125 216 125c114 0 197 -77 197 -187v-3c0 -90 -43 -149 -141 -252l-175 -198h321v-70h-425z" />
    <glyph glyph-name="three" unicode="3" horiz-adv-x="523"
d="M250 -11c-94 0 -165 40 -213 96l48 52c42 -48 93 -79 165 -79c79 0 142 55 142 140v3c0 90 -77 136 -186 136h-26l-11 47l194 247h-297v69h393v-56l-196 -247c108 -12 205 -70 205 -193v-3c0 -127 -97 -212 -218 -212z" />
    <glyph glyph-name="three.alt" horiz-adv-x="517"
d="M246 -11c-91 0 -166 40 -215 97l49 52c40 -47 95 -80 166 -80c84 0 146 53 146 134v2c0 81 -63 130 -178 130h-47v65h48c98 0 163 52 163 132v2c0 71 -54 119 -132 119c-67 0 -113 -31 -152 -79l-49 45c49 62 115 103 204 103c120 0 205 -76 205 -179v-2
c0 -92 -58 -143 -122 -169c79 -24 136 -78 136 -168v-2c0 -114 -91 -202 -222 -202z" />
    <glyph glyph-name="four" unicode="4" horiz-adv-x="576"
d="M370 0v162h-321l-14 55l340 488h66v-480h93v-63h-93v-162h-71zM120 225h250v362z" />
    <glyph glyph-name="five" unicode="5" horiz-adv-x="528"
d="M249 -11c-81 0 -153 37 -205 87l45 56c47 -44 101 -74 161 -74c89 0 152 65 152 157v3c0 92 -65 146 -152 146c-50 0 -88 -14 -122 -32l-48 33l18 335h350v-70h-285l-14 -223c33 14 66 25 113 25c119 0 216 -74 216 -211v-3c0 -136 -97 -229 -229 -229z" />
    <glyph glyph-name="six" unicode="6" horiz-adv-x="562"
d="M289 -11c-63 0 -116 22 -154 60c-51 52 -81 125 -81 273v8c0 232 99 381 259 381c67 0 118 -23 169 -63l-40 -60c-38 32 -79 54 -132 54c-116 0 -180 -128 -181 -299c37 59 95 95 170 95c113 0 211 -78 211 -214v-2c0 -136 -97 -233 -221 -233zM290 56
c88 0 144 72 144 163v2c0 92 -60 152 -145 152c-87 0 -149 -66 -149 -153v-2c0 -92 60 -162 150 -162z" />
    <glyph glyph-name="seven" unicode="7" horiz-adv-x="512"
d="M114 0l270 630h-328v70h409v-57l-270 -643h-81z" />
    <glyph glyph-name="eight" unicode="8" horiz-adv-x="545"
d="M272 -10c-130 0 -228 80 -228 196v3c0 84 52 144 127 173c-59 29 -107 81 -107 161v3c0 110 96 184 208 184c113 0 208 -74 208 -184v-3c0 -80 -47 -132 -106 -161c73 -30 127 -89 127 -172v-3c0 -118 -98 -197 -229 -197zM272 390c76 0 135 55 135 130v2
c0 72 -58 123 -135 123c-76 0 -134 -50 -134 -123v-2c0 -75 59 -130 134 -130zM272 55c96 0 154 59 154 134v2c0 80 -68 137 -154 137s-153 -57 -153 -137v-2c0 -74 58 -134 153 -134z" />
    <glyph glyph-name="nine" unicode="9" horiz-adv-x="562"
d="M251 58c115 0 181 129 182 294c-37 -60 -95 -97 -169 -97c-120 0 -212 82 -212 217v2c0 136 94 237 221 237c65 0 116 -22 154 -61c49 -49 81 -126 81 -272v-8c0 -238 -104 -381 -259 -381c-71 0 -126 27 -178 69l39 60c45 -38 88 -60 141 -60zM273 319
c88 0 149 68 149 158v2c0 94 -59 165 -151 165c-89 0 -143 -75 -143 -167v-2c0 -95 60 -156 145 -156z" />
    <glyph glyph-name="period" unicode="." horiz-adv-x="222"
d="M66 0v103h90v-103h-90z" />
    <glyph glyph-name="comma" unicode="," horiz-adv-x="222"
d="M50 -121l-12 34c49 18 68 45 65 87h-37v103h90v-88c0 -79 -33 -117 -106 -136z" />
    <glyph glyph-name="colon" unicode=":" horiz-adv-x="232"
d="M71 418v102h90v-102h-90zM71 0v103h90v-103h-90z" />
    <glyph glyph-name="semicolon" unicode=";" horiz-adv-x="232"
d="M71 418v102h90v-102h-90zM55 -121l-12 34c49 18 68 45 65 87h-37v103h90v-88c0 -79 -33 -117 -106 -136z" />
    <glyph glyph-name="ellipsis" unicode="&#x2026;" horiz-adv-x="668"
d="M513 0v102h88v-102h-88zM290 0v102h88v-102h-88zM67 0v102h88v-102h-88z" />
    <glyph glyph-name="periodcentered" unicode="&#xb7;" horiz-adv-x="224"
d="M67 249v104h90v-104h-90z" />
    <glyph glyph-name="bullet" unicode="&#x2022;" horiz-adv-x="431"
d="M216 225c-66 0 -119 52 -119 125v5c0 74 54 125 119 125c63 0 118 -51 118 -125v-5c0 -73 -53 -125 -118 -125z" />
    <glyph glyph-name="ampersand" unicode="&#x26;" horiz-adv-x="611"
d="M529 -12l-92 106c-54 -64 -118 -103 -201 -103c-114 0 -198 79 -198 189v3c0 89 55 159 152 208c-48 62 -69 106 -69 160v3c0 85 66 157 167 157c92 0 155 -69 155 -151v-3c0 -85 -57 -141 -148 -184l141 -170c26 44 47 94 68 152l61 -25c-25 -68 -52 -128 -84 -179
l105 -122zM256 418c79 35 118 79 118 137v1c0 53 -37 93 -88 93c-56 0 -95 -42 -95 -95v-2c0 -40 16 -74 65 -134zM242 55c60 0 110 34 153 88l-166 200c-81 -39 -115 -98 -115 -156v-3c0 -73 52 -129 128 -129z" />
    <glyph glyph-name="exclam" unicode="!" horiz-adv-x="250"
d="M105 196l-23 448v56h86v-56l-23 -448h-40zM80 0v103h89v-103h-89z" />
    <glyph glyph-name="exclamdown" unicode="&#xa1;" horiz-adv-x="250"
d="M80 597v103h89v-103h-89zM82 0v57l23 447h40l23 -447v-57h-86z" />
    <glyph glyph-name="question" unicode="?" horiz-adv-x="467"
d="M185 196l-13 166l5 5c112 10 174 62 174 146v2c0 72 -52 125 -132 125c-62 0 -111 -32 -151 -76l-45 50c51 55 112 94 200 94c122 0 204 -81 204 -190v-3c0 -118 -83 -179 -184 -200l-10 -119h-48zM165 0v103h89v-103h-89z" />
    <glyph glyph-name="questiondown" unicode="&#xbf;" horiz-adv-x="467"
d="M213 597v103h89v-103h-89zM245 -8c-123 0 -204 81 -204 190v3c0 118 83 179 183 200l10 119h48l13 -166l-4 -5c-113 -10 -175 -62 -175 -146v-2c0 -72 52 -125 132 -125c62 0 111 32 151 76l45 -50c-50 -55 -112 -94 -199 -94z" />
    <glyph glyph-name="quotedblleft" unicode="&#x201c;" horiz-adv-x="406"
d="M246 479v89c0 79 33 117 106 136l12 -34c-49 -18 -69 -45 -65 -87h36v-104h-89zM62 479v89c0 79 33 117 106 136l12 -34c-49 -18 -68 -45 -65 -87h37v-104h-90z" />
    <glyph glyph-name="quotedblright" unicode="&#x201d;" horiz-adv-x="406"
d="M238 476l-12 34c50 18 69 45 65 87h-36v103h89v-88c0 -79 -33 -117 -106 -136zM54 476l-12 34c50 18 69 45 65 87h-36v103h89v-88c0 -79 -33 -117 -106 -136z" />
    <glyph glyph-name="quoteleft" unicode="&#x2018;" horiz-adv-x="222"
d="M62 479v89c0 79 33 117 106 136l12 -34c-49 -18 -68 -45 -65 -87h37v-104h-90z" />
    <glyph glyph-name="quoteright" unicode="&#x2019;" horiz-adv-x="222"
d="M54 476l-12 34c50 18 69 45 65 87h-36v103h89v-88c0 -79 -33 -117 -106 -136z" />
    <glyph glyph-name="quotedblbase" unicode="&#x201e;" horiz-adv-x="409"
d="M235 -121l-12 34c50 18 70 45 66 87h-36v103h89v-88c0 -79 -33 -117 -107 -136zM51 -121l-12 34c50 18 69 45 65 87h-36v103h89v-88c0 -79 -32 -117 -106 -136z" />
    <glyph glyph-name="quotesinglbase" unicode="&#x201a;" horiz-adv-x="224"
d="M51 -121l-12 34c50 18 69 45 65 87h-36v103h89v-88c0 -79 -32 -117 -106 -136z" />
    <glyph glyph-name="guillemotleft" unicode="&#xab;" horiz-adv-x="496"
d="M393 42l-153 213v8l153 212l52 -30l-123 -185l123 -188zM196 42l-153 213v8l153 212l52 -30l-123 -185l124 -188z" />
    <glyph glyph-name="guillemotright" unicode="&#xbb;" horiz-adv-x="496"
d="M299 42l-52 30l124 186l-124 187l52 30l154 -212v-8zM103 42l-53 30l124 186l-124 187l53 30l153 -212v-8z" />
    <glyph glyph-name="guilsinglleft" unicode="&#x2039;" horiz-adv-x="299"
d="M196 42l-153 213v8l153 212l52 -30l-123 -185l124 -188z" />
    <glyph glyph-name="guilsinglright" unicode="&#x203a;" horiz-adv-x="299"
d="M103 42l-53 30l124 186l-124 187l53 30l153 -212v-8z" />
    <glyph glyph-name="hyphen" unicode="-" horiz-adv-x="371"
d="M57 263v75h257v-75h-257z" />
    <glyph glyph-name="endash" unicode="&#x2013;" horiz-adv-x="493"
d="M57 264v72h379v-72h-379z" />
    <glyph glyph-name="emdash" unicode="&#x2014;" horiz-adv-x="809"
d="M57 264v72h695v-72h-695z" />
    <glyph glyph-name="underscore" unicode="_" horiz-adv-x="555"
d="M-2 -159v60h559v-60h-559z" />
    <glyph glyph-name="slash" unicode="/" horiz-adv-x="437"
d="M-16 -119l390 908h65l-389 -908h-66z" />
    <glyph glyph-name="backslash" unicode="\" horiz-adv-x="437"
d="M387 -119l-390 908h66l390 -908h-66z" />
    <glyph glyph-name="bar" unicode="|" horiz-adv-x="280"
d="M110 -119v908h60v-908h-60z" />
    <glyph glyph-name="parenleft" unicode="(" horiz-adv-x="379"
d="M308 -138c-158 90 -250 235 -250 426s92 336 250 426l29 -47c-133 -88 -205 -210 -205 -379s72 -291 205 -379z" />
    <glyph glyph-name="parenright" unicode=")" horiz-adv-x="379"
d="M71 -138l-29 47c132 88 205 210 205 379s-73 291 -205 379l29 47c158 -90 249 -235 249 -426s-91 -336 -249 -426z" />
    <glyph glyph-name="bracketleft" unicode="[" horiz-adv-x="386"
d="M88 -130v830h246v-56h-178v-718h178v-56h-246z" />
    <glyph glyph-name="bracketright" unicode="]" horiz-adv-x="386"
d="M51 -130v56h178v718h-178v56h247v-830h-247z" />
    <glyph glyph-name="braceleft" unicode="{" horiz-adv-x="421"
d="M366 -140c-158 25 -198 88 -198 179c0 32 12 77 12 110c0 67 -28 111 -113 111h-22v55h22c85 0 113 45 113 112c0 32 -12 77 -12 109c0 91 40 154 198 179l11 -49c-117 -25 -139 -60 -139 -138c0 -35 12 -71 12 -106c0 -75 -37 -117 -104 -134c68 -19 104 -60 104 -135
c0 -35 -12 -71 -12 -106c0 -78 22 -112 139 -138z" />
    <glyph glyph-name="braceright" unicode="}" horiz-adv-x="421"
d="M54 -140l-10 49c117 26 139 60 139 138c0 35 -12 71 -12 106c0 75 37 117 104 135c-68 18 -104 59 -104 134c0 35 12 71 12 106c0 78 -22 113 -139 138l10 49c159 -25 198 -88 198 -179c0 -32 -11 -77 -11 -109c0 -67 28 -112 112 -112h22v-55h-22
c-84 0 -112 -44 -112 -111c0 -33 11 -78 11 -110c0 -91 -39 -154 -198 -179z" />
    <glyph glyph-name="at" unicode="@" horiz-adv-x="875"
d="M438 -153c-223 0 -391 172 -391 409c0 244 171 455 403 455c218 0 378 -172 378 -371c0 -168 -84 -269 -177 -269c-68 0 -110 37 -122 89c-36 -49 -82 -89 -150 -89c-83 0 -150 64 -150 167c0 146 102 266 208 266c69 0 107 -40 126 -85l14 71l63 -10l-42 -236
c-5 -26 -7 -48 -7 -63c0 -44 25 -72 70 -72c70 0 132 92 132 231c0 174 -141 338 -343 338c-217 0 -369 -200 -369 -422c0 -219 149 -377 358 -377c88 0 151 21 218 61l17 -27c-70 -42 -142 -66 -236 -66zM395 129c32 0 64 16 88 40c35 35 62 97 62 158
c0 69 -43 117 -101 117c-32 0 -63 -15 -88 -40c-37 -37 -60 -102 -60 -161c0 -74 41 -114 99 -114z" />
    <glyph glyph-name="copyright" unicode="&#xa9;" horiz-adv-x="737"
d="M368 -12c-186 0 -324 159 -324 355v13c0 196 140 356 325 356s324 -159 324 -355v-12c0 -196 -140 -357 -325 -357zM368 19c170 0 293 146 293 326v12c0 179 -122 324 -292 324c-171 0 -293 -146 -293 -325v-13c0 -179 122 -324 292 -324zM374 160
c-92 0 -162 78 -162 191v5c0 113 71 192 164 192c52 0 85 -19 117 -48l-32 -39c-22 21 -50 38 -85 38c-63 0 -111 -57 -111 -142v-6c0 -85 49 -142 112 -142c36 0 60 14 87 39l30 -36c-33 -33 -68 -52 -120 -52z" />
    <glyph glyph-name="published" unicode="&#x2117;" horiz-adv-x="737"
d="M368 -12c-186 0 -324 159 -324 355v13c0 196 140 356 325 356s324 -159 324 -355v-12c0 -196 -140 -357 -325 -357zM368 19c170 0 293 146 293 326v12c0 179 -122 324 -292 324c-171 0 -293 -146 -293 -325v-13c0 -179 122 -324 292 -324zM262 170v375h118
c81 0 136 -44 136 -121v-2c0 -83 -64 -125 -140 -126h-63v-126h-51zM313 344h64c53 0 86 28 86 76v2c0 50 -33 75 -85 75h-65v-153z" />
    <glyph glyph-name="registered.alt" horiz-adv-x="737"
d="M368 -12c-186 0 -324 159 -324 355v13c0 196 140 356 325 356s324 -159 324 -355v-12c0 -196 -140 -357 -325 -357zM368 19c170 0 293 146 293 326v12c0 179 -122 324 -292 324c-171 0 -293 -146 -293 -325v-13c0 -179 122 -324 292 -324zM246 171v376h134
c43 0 80 -13 102 -36c18 -18 30 -45 30 -77v-2c0 -58 -34 -94 -84 -108l100 -153h-62l-92 143c-2 -1 -4 -1 -5 -1h-72v-142h-51zM297 360h80c48 0 82 24 82 70v1c0 44 -31 68 -81 68h-81v-139z" />
    <glyph glyph-name="registered" unicode="&#xae;" horiz-adv-x="375"
d="M188 359c-91 0 -160 77 -160 173v6c0 96 69 174 160 174s160 -77 160 -173v-6c0 -96 -70 -174 -160 -174zM188 378c80 0 139 69 139 155v6c0 85 -58 154 -139 154s-140 -70 -140 -155v-6c0 -85 58 -154 140 -154zM127 448v182h68c38 0 65 -21 65 -58
c0 -29 -16 -46 -38 -54l44 -70h-37l-39 64h-31v-64h-32zM159 539h33c23 0 36 12 36 31c0 21 -14 31 -36 31h-33v-62z" />
    <glyph glyph-name="servicemark" unicode="&#x2120;" horiz-adv-x="621"
d="M307 390v310h47l90 -160l90 160h46v-310h-42v237l-92 -165h-5l-92 165v-237h-42zM142 385c-42 0 -81 16 -114 44l24 33c27 -24 56 -39 91 -39c34 0 57 18 57 45c0 25 -14 39 -66 59c-61 24 -93 45 -93 93c0 49 41 85 100 85c38 0 71 -13 99 -36l-24 -32
c-23 18 -48 29 -77 29c-34 0 -55 -18 -55 -43c0 -24 15 -37 68 -57c61 -24 92 -49 92 -95c0 -52 -45 -86 -102 -86z" />
    <glyph glyph-name="trademark" unicode="&#x2122;" horiz-adv-x="602"
d="M289 390v310h47l90 -160l90 160h46v-310h-42v237l-92 -165h-5l-92 165v-237h-42zM103 390v269h-83v41h209v-41h-83v-269h-43z" />
    <glyph glyph-name="asterisk" unicode="*" horiz-adv-x="386"
d="M167 404l11 123l-97 -70l-26 45l109 51l-109 52l26 45l97 -70l-11 122h52l-11 -122l96 70l27 -45l-110 -52l110 -51l-27 -45l-96 70l11 -123h-52z" />
    <glyph glyph-name="dagger" unicode="&#x2020;" horiz-adv-x="356"
d="M151 238l8 283l-111 -9v55l110 -9l-10 142h61l-10 -142l110 9v-55l-111 9l8 -283h-55z" />
    <glyph glyph-name="daggerdbl" unicode="&#x2021;" horiz-adv-x="377"
d="M158 0l10 142l-110 -9v55l111 -9l-8 171l8 171l-111 -9v55l110 -9l-10 142h61l-10 -142l110 9v-55l-110 9l7 -171l-7 -171l110 9v-55l-110 9l10 -142h-61z" />
    <glyph glyph-name="dollar" unicode="$" horiz-adv-x="547"
d="M477 626l-42 -56c-41 35 -85 57 -131 64v-249c135 -45 188 -103 188 -199v-1c0 -102 -75 -175 -186 -185v-99h-58v99c-76 6 -147 36 -207 93l44 56c50 -48 102 -77 165 -84v259c-127 43 -185 96 -185 195v1c0 98 74 171 183 181v60h58v-61c66 -6 120 -31 171 -74z
M420 183c0 56 -26 94 -116 125v-244c73 8 116 56 116 118v1zM138 524c0 -57 26 -90 112 -122v234c-70 -8 -112 -54 -112 -111v-1z" />
    <glyph glyph-name="sterling" unicode="&#xa3;" horiz-adv-x="549"
d="M56 0v43l73 21v237h-74v65h74v117c0 74 17 133 58 174c32 32 80 52 137 52c89 0 144 -42 180 -91l-54 -47c-31 40 -67 69 -126 69c-30 0 -59 -9 -81 -31c-28 -27 -39 -70 -39 -126v-117h230v-65h-230v-234h300v-67h-448z" />
    <glyph glyph-name="Euro" unicode="&#x20ac;" horiz-adv-x="612"
d="M569 605l-52 -46c-38 52 -78 83 -144 83c-83 0 -144 -71 -170 -175h223v-59h-234c-2 -18 -2 -37 -2 -55v-5c0 -17 0 -34 1 -49h235v-59h-226c25 -113 92 -182 178 -182c64 0 106 36 143 88l50 -43c-48 -66 -106 -113 -195 -113c-129 0 -222 98 -252 250h-81v59h73
c-1 15 -2 30 -2 47v6c0 19 1 38 3 56h-74v59h83c32 141 122 243 248 243c92 0 148 -43 195 -105z" />
    <glyph glyph-name="yen" unicode="&#xa5;" horiz-adv-x="586"
d="M86 267v58h151l-216 375h86l187 -340l189 340h83l-217 -375h152v-58h-171v-88h171v-59h-171v-120h-73v120h-171v59h171v88h-171z" />
    <glyph glyph-name="cent" unicode="&#xa2;" horiz-adv-x="494"
d="M349 705l-12 -86c44 -11 81 -34 115 -68l-43 -53c-25 24 -51 44 -83 53l-55 -402h13c54 0 94 26 129 62l41 -48c-43 -47 -97 -80 -175 -80h-14l-13 -89h-59l14 101c-92 32 -157 127 -157 255v6c0 156 97 267 229 269l11 80h59zM124 352c0 -93 38 -160 94 -188l54 394
c-85 -5 -148 -83 -148 -202v-4z" />
    <glyph glyph-name="baht" unicode="&#xe3f;" horiz-adv-x="558"
d="M301 780h56l-13 -87c89 -19 148 -80 148 -168v-2c0 -97 -59 -143 -123 -165c82 -23 143 -72 143 -168v-1c0 -120 -95 -189 -236 -189h-26l-16 -119h-56l16 119h-116v700h201h11zM441 193c0 78 -53 124 -149 129l-36 -257h22c100 0 163 46 163 128zM149 383h100l34 252h-5
h-129v-252zM421 514c0 59 -33 99 -89 114l-34 -244c77 9 123 55 123 130zM149 65h58l35 258h-93v-258z" />
    <glyph glyph-name="colonmonetary" unicode="&#x20a1;" horiz-adv-x="529"
d="M412 779h47l-15 -107c18 -10 36 -23 53 -37l-36 -57l-31 25l-78 -539c43 6 75 28 109 59l38 -51c-44 -40 -90 -67 -154 -73l-16 -117h-47l17 116c-27 2 -54 7 -78 18l-19 -134h-47l23 158c-78 54 -129 159 -129 304v11c0 196 95 319 225 343l11 81h47l-11 -76
c29 0 55 -4 78 -11zM228 88c25 -16 54 -25 84 -26l80 561c-21 9 -44 15 -71 15c-4 0 -9 0 -13 -1zM120 344c0 -103 28 -179 72 -226l74 511c-86 -28 -146 -124 -146 -274v-11z" />
    <glyph glyph-name="florin" unicode="&#x192;" horiz-adv-x="457"
d="M81 -5c-21 0 -36 2 -50 5v63c13 -2 26 -4 42 -4c38 0 62 23 70 74l38 243h-84v62h94l20 128c15 94 59 139 142 139c32 0 54 -4 75 -11v-64c-21 6 -43 10 -64 10c-46 0 -71 -25 -80 -86l-18 -116h129v-62h-139l-39 -251c-15 -90 -58 -130 -136 -130z" />
    <glyph glyph-name="naira" unicode="&#x20a6;" horiz-adv-x="725"
d="M690 228h-91v-228h-87l-121 228h-194v-228h-71v228h-91v55h91v138h-91v55h91v224h94l118 -224h190v224h71v-224h91v-55h-91v-138h91v-55zM196 422v-140h168l-75 140h-93zM364 422l75 -140h89v140h-164zM196 596v-121h65l-64 121h-1zM467 229l61 -114v114h-61z" />
    <glyph glyph-name="peso" unicode="&#x20b1;" horiz-adv-x="632"
d="M116 0v444h-90v54h90v202h170c139 0 234 -77 244 -202h90v-54h-91c-12 -132 -119 -206 -253 -207h-85v-237h-75zM278 303c101 0 168 56 178 142h-266v-142h88zM190 633v-137h266c-10 90 -77 137 -176 137h-90z" />
    <glyph glyph-name="R_p" horiz-adv-x="1033"
d="M70 0v700h191c138 0 227 -81 227 -211v-3c0 -106 -61 -174 -145 -201l165 -285h-84l-154 269h-129v-269h-71zM590 -151v674h69v-96c31 56 78 106 150 106c95 0 185 -92 185 -264v-15c0 -171 -90 -264 -185 -264c-73 0 -120 49 -150 103v-244h-69zM794 53
c72 0 130 73 130 201v14c0 126 -60 203 -130 203s-137 -78 -137 -202v-16c0 -124 67 -200 137 -200zM141 332h119c93 0 156 56 156 152v3c0 97 -62 147 -159 147h-116v-302z" />
    <glyph glyph-name="rupee" unicode="&#x20a8;" horiz-adv-x="939"
d="M70 0v700h191c138 0 227 -81 227 -211v-3c0 -106 -61 -174 -145 -201l165 -285h-84l-154 269h-129v-269h-71zM141 332h119c93 0 156 56 156 152v3c0 97 -62 147 -159 147h-116v-302zM734 -9c-63 0 -128 23 -181 68l37 53c46 -38 93 -60 146 -60c55 0 94 33 94 80v2
c0 40 -25 63 -108 100c-100 44 -146 83 -146 154v2c0 82 67 139 158 139c55 0 110 -18 157 -52l-34 -56c-38 28 -81 47 -125 47c-54 0 -88 -32 -88 -73v-2c0 -40 27 -63 111 -100c101 -45 143 -85 143 -155v-2c0 -89 -71 -145 -164 -145z" />
    <glyph glyph-name="won" unicode="&#x20a9;" horiz-adv-x="963"
d="M887 700l-54 -225h101v-56h-114l-32 -135h146v-56h-159l-54 -231h-86l-58 231h-191l-58 -231h-86l-55 231h-158v56h145l-32 135h-113v56h100l-53 225h80l49 -225h178l56 227h88l55 -227h180l49 225h76zM434 421l-35 -138h164l-34 138h-95zM214 420l29 -136h94l33 136
h-156zM595 420l33 -136h94l28 136h-155zM286 87h4l34 141h-69zM676 87h4l30 141h-68zM480 606l-33 -132h69l-32 132h-4z" />
    <glyph glyph-name="sheqel" unicode="&#x20aa;" horiz-adv-x="559"
d="M210 139l-28 203h51l26 -179c9 -67 36 -99 96 -99h80v453h61v-517h-143c-87 0 -130 44 -143 139zM313 353c0 70 -29 100 -92 100h-97v-453h-61v517h166c88 0 135 -44 135 -143v-191h-51v170z" />
    <glyph glyph-name="numbersign" unicode="#" horiz-adv-x="605"
d="M534 243v-66h-113l-25 -177h-63l25 177h-162l-25 -177h-64l25 177h-95v66h105l31 217h-103v66h113l25 174h63l-25 -174h162l25 174h64l-25 -174h94v-66h-104l-31 -217h103zM236 461l-32 -218h164l32 218h-164z" />
    <glyph glyph-name="paragraph" unicode="&#xb6;" horiz-adv-x="457"
d="M302 0v260h-8c-147 1 -255 79 -255 219v2c0 138 102 219 247 219h91v-700h-75z" />
    <glyph glyph-name="section" unicode="&#xa7;" horiz-adv-x="554"
d="M379 224c44 -27 69 -60 69 -102v-2c0 -77 -67 -129 -169 -129c-74 0 -141 28 -190 74l42 49c38 -34 89 -60 150 -60c62 0 93 28 93 65v2c0 37 -35 62 -143 95c-132 40 -181 77 -181 142v2c0 57 46 101 124 116c-43 27 -68 60 -68 102v2c0 77 67 129 168 129
c75 0 141 -28 190 -74l-42 -49c-37 34 -89 60 -150 60s-92 -28 -92 -65v-2c0 -37 34 -61 143 -95c132 -40 181 -77 181 -142v-2c0 -57 -46 -101 -125 -116zM331 260c59 0 103 32 103 72v3c0 34 -29 60 -122 89c-41 12 -68 16 -90 16c-58 0 -103 -32 -103 -72v-3
c0 -34 29 -60 123 -89c40 -12 67 -16 89 -16z" />
    <glyph glyph-name="ordfeminine" unicode="&#xaa;" horiz-adv-x="348"
d="M149 406c-48 0 -93 32 -93 90v3c0 60 43 93 107 93c28 0 49 -4 68 -11v12c0 43 -25 66 -68 66c-27 0 -51 -9 -74 -20l-15 41c29 14 57 23 94 23c36 0 64 -10 84 -31c17 -17 26 -44 26 -78v-182h-47v37c-19 -26 -46 -43 -82 -43zM158 447c40 0 74 28 74 67v31
c-18 6 -38 10 -64 10c-41 0 -65 -22 -65 -54v-3c0 -32 24 -51 55 -51zM53 297v43h232v-43h-232z" />
    <glyph glyph-name="ordmasculine" unicode="&#xba;" horiz-adv-x="348"
d="M173 406c-75 0 -127 64 -127 146v5c0 83 53 148 129 148c74 0 127 -64 127 -146v-5c0 -84 -54 -148 -129 -148zM49 297v43h250v-43h-250zM175 451c47 0 77 46 77 101v5c0 56 -32 102 -79 102c-48 0 -77 -46 -77 -101v-4c0 -57 31 -103 79 -103z" />
    <glyph glyph-name="degree" unicode="&#xb0;" horiz-adv-x="397"
d="M198 398c-75 0 -140 65 -140 152v4c0 87 65 152 140 152s141 -65 141 -152v-4c0 -87 -66 -152 -141 -152zM198 448c50 0 86 45 86 102v3c0 58 -36 103 -86 103c-49 0 -85 -45 -85 -103v-3c0 -57 36 -102 85 -102z" />
    <glyph glyph-name="percent" unicode="%" horiz-adv-x="738"
d="M186 354c-84 0 -142 76 -142 173v5c0 99 59 175 143 175s142 -76 142 -173v-5c0 -99 -59 -175 -143 -175zM186 653c-48 0 -80 -51 -80 -120v-4c0 -72 36 -121 81 -121c48 0 81 50 81 120v4c0 71 -36 121 -82 121zM347 363l217 337h64l-238 -364l-215 -336h-64zM551 -7
c-84 0 -142 76 -142 173v5c0 99 59 175 143 175s142 -76 142 -173v-5c0 -99 -59 -175 -143 -175zM552 47c48 0 81 50 81 120v4c0 71 -36 121 -82 121c-48 0 -81 -51 -81 -120v-4c0 -72 36 -121 82 -121z" />
    <glyph glyph-name="perthousand" unicode="&#x2030;" horiz-adv-x="1078"
d="M187 408c48 0 81 50 81 120v4c0 71 -36 121 -82 121c-48 0 -80 -51 -80 -120v-4c0 -72 36 -121 81 -121zM186 354c-84 0 -142 76 -142 173v5c0 99 59 175 143 175s142 -76 142 -173v-5c0 -99 -59 -175 -143 -175zM628 700l-238 -364l-215 -336h-64l236 363l217 337h64z
M552 47c48 0 81 50 81 120v4c0 71 -36 121 -82 121c-48 0 -81 -51 -81 -120v-4c0 -72 36 -121 82 -121zM551 -7c-84 0 -142 76 -142 173v5c0 99 59 175 143 175s142 -76 142 -173v-5c0 -99 -59 -175 -143 -175zM892 47c48 0 81 50 81 120v4c0 71 -36 121 -82 121
c-48 0 -81 -51 -81 -120v-4c0 -72 36 -121 82 -121zM891 -7c-84 0 -142 76 -142 173v5c0 99 59 175 143 175s142 -76 142 -173v-5c0 -99 -59 -175 -143 -175z" />
    <glyph glyph-name="quotedbl" unicode="&#x22;" horiz-adv-x="386"
d="M232 431l21 269h85v-6l-70 -263h-36zM59 431l21 269h86v-6l-70 -263h-37z" />
    <glyph glyph-name="quotesingle" unicode="'" horiz-adv-x="211"
d="M59 431l21 269h86v-6l-70 -263h-37z" />
    <glyph glyph-name="plus" unicode="+" horiz-adv-x="542"
d="M236 137v181h-180v68h180v181h70v-181h180v-68h-180v-181h-70z" />
    <glyph glyph-name="minus" unicode="&#x2212;" horiz-adv-x="542"
d="M486 316h-430v72h430v-72z" />
    <glyph glyph-name="divide" unicode="&#xf7;" horiz-adv-x="542"
d="M225 483v98h92v-98h-92zM486 318h-430v68h430v-68zM225 123v98h92v-98h-92z" />
    <glyph glyph-name="equal" unicode="=" horiz-adv-x="542"
d="M65 421v71h412v-71h-412zM65 212v71h412v-71h-412z" />
    <glyph glyph-name="multiply" unicode="&#xd7;" horiz-adv-x="542"
d="M419 151l-148 154l-149 -154l-49 47l153 153l-153 154l50 48l149 -154l148 154l49 -47l-153 -153l153 -154z" />
    <glyph glyph-name="less" unicode="&#x3c;" horiz-adv-x="542"
d="M464 108l-408 212v64l408 212v-77l-329 -166l329 -167v-78z" />
    <glyph glyph-name="greater" unicode="&#x3e;" horiz-adv-x="542"
d="M78 108v77l330 166l-330 167v78l408 -212v-64z" />
    <glyph glyph-name="plusminus" unicode="&#xb1;" horiz-adv-x="542"
d="M481 351h-176l1 -174h-69v174h-175v68l175 -1v175h69l-1 -175l176 1v-68zM480 22h-418v65h418v-65z" />
    <glyph glyph-name="onehalf" unicode="&#xbd;" horiz-adv-x="729"
d="M428 0v41l132 132c44 42 64 69 64 103c0 37 -29 61 -66 61c-40 0 -67 -24 -93 -57l-34 29c34 46 71 74 130 74c66 0 115 -43 115 -104c0 -49 -24 -80 -75 -129l-104 -103h182v-47h-251zM105 0l218 359l200 341h50l-217 -359l-200 -341h-51zM188 325h-51v326l-79 -33
l-9 45l98 42h41v-380z" />
    <glyph glyph-name="onehalf.alt" horiz-adv-x="794"
d="M304 325h-246v44h102v283l-92 -37l-9 46l111 44h41v-336h93v-44zM499 0v41l132 132c44 42 64 69 64 103c0 37 -29 61 -66 61c-40 0 -67 -24 -93 -57l-34 29c34 46 71 74 130 74c66 0 115 -43 115 -104c0 -49 -24 -80 -75 -129l-104 -103h182v-47h-251zM179 0l218 359
l200 341h50l-217 -359l-200 -341h-51z" />
    <glyph glyph-name="onethird" unicode="&#x2153;" horiz-adv-x="729"
d="M554 -8c-57 0 -99 25 -128 58l30 35c26 -28 57 -48 99 -48c40 0 74 27 74 69c0 45 -39 69 -99 69h-23l-7 32l112 122h-168v46h232v-39l-113 -121c66 -7 117 -40 117 -108c0 -69 -56 -115 -126 -115zM188 325h-51v326l-79 -33l-9 45l98 42h41v-380zM96 0l218 359l200 341
h50l-217 -359l-200 -341h-51z" />
    <glyph glyph-name="onethird.alt" horiz-adv-x="794"
d="M305 325h-246v44h102v283l-92 -37l-9 46l111 44h41v-336h93v-44zM620 -8c-57 0 -99 25 -128 58l30 35c26 -28 57 -48 99 -48c40 0 74 27 74 69c0 45 -39 69 -99 69h-23l-7 32l112 122h-168v46h232v-39l-113 -121c66 -7 117 -40 117 -108c0 -69 -56 -115 -126 -115zM171 0
l218 359l200 341h50l-217 -359l-200 -341h-51z" />
    <glyph glyph-name="twothirds" unicode="&#x2154;" horiz-adv-x="794"
d="M621 -8c-57 0 -99 25 -128 58l30 35c26 -28 57 -48 99 -48c40 0 74 27 74 69c0 45 -39 69 -99 69h-23l-7 32l112 122h-168v46h232v-39l-113 -121c66 -7 117 -40 117 -108c0 -69 -56 -115 -126 -115zM43 325v41l132 132c44 42 64 69 64 103c0 37 -29 61 -66 61
c-40 0 -67 -24 -93 -57l-34 29c34 46 71 74 130 74c66 0 115 -43 115 -104c0 -49 -24 -80 -75 -129l-104 -103h182v-47h-251zM164 0l218 359l200 341h50l-217 -359l-200 -341h-51z" />
    <glyph glyph-name="onequarter" unicode="&#xbc;" horiz-adv-x="729"
d="M188 325h-51v326l-79 -33l-9 45l98 42h41v-380zM119 0l218 359l200 341h50l-217 -359l-200 -341h-51zM639 82v-84h-47v84h-171l-8 42l169 255h57v-255h48v-42h-48zM593 123v194h-2l-128 -194h130z" />
    <glyph glyph-name="onequarter.alt" horiz-adv-x="794"
d="M306 325h-246v44h102v283l-92 -37l-9 46l111 44h41v-336h93v-44zM186 0l218 359l200 341h50l-217 -359l-200 -341h-51zM707 82v-84h-47v84h-171l-8 42l169 255h57v-255h48v-42h-48zM661 123v194h-2l-128 -194h130z" />
    <glyph glyph-name="threequarters" unicode="&#xbe;" horiz-adv-x="794"
d="M706 82v-84h-47v84h-171l-8 42l169 255h57v-255h48v-42h-48zM660 123v194h-2l-128 -194h130zM182 0l218 359l200 341h50l-217 -359l-200 -341h-51zM171 317c-57 0 -99 25 -128 58l30 35c26 -28 57 -48 99 -48c40 0 74 27 74 70c0 44 -39 68 -99 68h-23l-7 32l112 122
h-168v46h232v-39l-113 -121c66 -7 117 -40 117 -108c0 -69 -56 -115 -126 -115z" />
    <glyph glyph-name="onefifth" unicode="&#x2155;" horiz-adv-x="729"
d="M551 -8c-47 0 -91 20 -125 54l30 37c28 -28 60 -46 96 -46c50 0 80 35 80 78c0 47 -34 71 -81 71c-27 0 -51 -7 -72 -17l-33 18l14 188h206v-48h-164l-8 -108c18 7 41 12 66 12c68 0 123 -41 123 -114c0 -74 -55 -125 -132 -125zM188 325h-51v326l-79 -33l-9 45l98 42h41
v-380zM99 0l218 359l200 341h50l-217 -359l-200 -341h-51z" />
    <glyph glyph-name="onefifth.alt" horiz-adv-x="794"
d="M305 325h-246v44h102v283l-92 -37l-9 46l111 44h41v-336h93v-44zM621 -8c-47 0 -91 20 -125 54l30 37c28 -28 60 -46 96 -46c50 0 80 35 80 78c0 47 -34 71 -81 71c-27 0 -51 -7 -72 -17l-33 18l14 188h206v-48h-164l-8 -108c18 7 41 12 66 12c68 0 123 -41 123 -114
c0 -74 -55 -125 -132 -125zM176 0l218 359l200 341h50l-217 -359l-200 -341h-51z" />
    <glyph glyph-name="twofifths" unicode="&#x2156;" horiz-adv-x="794"
d="M622 -8c-47 0 -91 20 -125 54l30 37c28 -28 60 -46 96 -46c50 0 80 35 80 78c0 47 -34 71 -81 71c-27 0 -51 -7 -72 -17l-33 18l14 188h206v-48h-164l-8 -108c18 7 41 12 66 12c68 0 123 -41 123 -114c0 -74 -55 -125 -132 -125zM172 0l218 359l200 341h50l-217 -359
l-200 -341h-51zM43 325v41l132 132c44 42 64 69 64 103c0 37 -29 61 -66 61c-40 0 -67 -24 -93 -57l-34 29c34 46 71 74 130 74c66 0 115 -43 115 -104c0 -49 -24 -80 -75 -129l-104 -103h182v-47h-251z" />
    <glyph glyph-name="threefifths" unicode="&#x2157;" horiz-adv-x="794"
d="M622 -8c-47 0 -91 20 -125 54l30 37c28 -28 60 -46 96 -46c50 0 80 35 80 78c0 47 -34 71 -81 71c-27 0 -51 -7 -72 -17l-33 18l14 188h206v-48h-164l-8 -108c18 7 41 12 66 12c68 0 123 -41 123 -114c0 -74 -55 -125 -132 -125zM159 0l218 359l200 341h50l-217 -359
l-200 -341h-51zM163 317c-57 0 -99 25 -128 58l30 35c26 -28 57 -48 99 -48c40 0 74 27 74 70c0 44 -39 68 -99 68h-23l-7 32l112 122h-168v46h232v-39l-113 -121c66 -7 117 -40 117 -108c0 -69 -56 -115 -126 -115z" />
    <glyph glyph-name="fourfifths" unicode="&#x2158;" horiz-adv-x="794"
d="M260 407v-84h-47v84h-171l-8 42l169 255h57v-255h48v-42h-48zM214 448v194h-2l-128 -194h130zM622 -8c-47 0 -91 20 -125 54l30 37c28 -28 60 -46 96 -46c50 0 80 35 80 78c0 47 -34 71 -81 71c-27 0 -51 -7 -72 -17l-33 18l14 188h206v-48h-164l-8 -108
c18 7 41 12 66 12c68 0 123 -41 123 -114c0 -74 -55 -125 -132 -125zM170 0l218 359l200 341h50l-217 -359l-200 -341h-51z" />
    <glyph glyph-name="onesixth" unicode="&#x2159;" horiz-adv-x="729"
d="M554 -8c-34 0 -65 13 -85 33c-26 26 -44 66 -44 145v5c0 132 58 208 145 208c42 0 71 -14 97 -37l-26 -38c-19 16 -42 30 -72 30c-52 0 -92 -53 -95 -140c20 25 48 42 90 42c61 0 114 -41 114 -120c0 -75 -54 -128 -124 -128zM106 0l218 359l200 341h50l-217 -359
l-200 -341h-51zM188 325h-51v326l-79 -33l-9 45l98 42h41v-380zM554 36c45 0 75 33 75 82c0 50 -29 79 -74 79c-43 0 -76 -30 -76 -79c0 -48 32 -82 75 -82z" />
    <glyph glyph-name="onesixth.alt" horiz-adv-x="794"
d="M626 -8c-34 0 -65 13 -85 33c-26 26 -44 66 -44 145v5c0 132 58 208 145 208c42 0 71 -14 97 -37l-26 -38c-19 16 -42 30 -72 30c-52 0 -92 -53 -95 -140c20 25 48 42 90 42c61 0 114 -41 114 -120c0 -75 -54 -128 -124 -128zM178 0l218 359l200 341h50l-217 -359
l-200 -341h-51zM305 325h-246v44h102v283l-92 -37l-9 46l111 44h41v-336h93v-44zM626 36c45 0 75 33 75 82c0 50 -29 79 -74 79c-43 0 -76 -30 -76 -79c0 -48 32 -82 75 -82z" />
    <glyph glyph-name="fivesixths" unicode="&#x215a;" horiz-adv-x="794"
d="M625 -8c-34 0 -65 13 -85 33c-26 26 -44 66 -44 145v5c0 132 58 208 145 208c42 0 71 -14 97 -37l-26 -38c-19 16 -42 30 -72 30c-52 0 -92 -53 -95 -140c20 25 48 42 90 42c61 0 114 -41 114 -120c0 -75 -54 -128 -124 -128zM165 317c-47 0 -91 20 -125 54l30 37
c28 -28 60 -46 96 -46c50 0 80 35 80 78c0 47 -34 71 -81 71c-27 0 -51 -7 -72 -17l-33 18l14 188h206v-48h-164l-8 -108c18 7 41 12 66 12c68 0 123 -41 123 -114c0 -74 -55 -125 -132 -125zM163 0l218 359l200 341h50l-217 -359l-200 -341h-51zM625 36c45 0 75 33 75 82
c0 50 -29 79 -74 79c-43 0 -76 -30 -76 -79c0 -48 32 -82 75 -82z" />
    <glyph glyph-name="oneeighth" unicode="&#x215b;" horiz-adv-x="729"
d="M555 -8c-76 0 -129 43 -129 109c0 44 27 76 65 93c-31 16 -55 45 -55 87c0 61 54 102 120 102c65 0 118 -41 118 -102c0 -42 -23 -70 -55 -87c38 -16 65 -49 65 -92c0 -67 -54 -110 -129 -110zM555 341c-42 0 -71 -26 -71 -62c0 -38 29 -66 71 -66s71 28 71 66
c0 36 -29 62 -71 62zM555 172c-48 0 -81 -29 -81 -70c0 -40 32 -68 81 -68s81 28 81 68c0 41 -33 70 -81 70zM188 325h-51v326l-79 -33l-9 45l98 42h41v-380zM104 0l218 359l200 341h50l-217 -359l-200 -341h-51z" />
    <glyph glyph-name="oneeighth.alt" horiz-adv-x="794"
d="M304 325h-246v44h102v283l-92 -37l-9 46l111 44h41v-336h93v-44zM628 -8c-76 0 -129 43 -129 109c0 44 27 76 65 93c-31 16 -55 45 -55 87c0 61 54 102 120 102c65 0 118 -41 118 -102c0 -42 -23 -70 -55 -87c38 -16 65 -49 65 -92c0 -67 -54 -110 -129 -110zM628 341
c-42 0 -71 -26 -71 -62c0 -38 29 -66 71 -66s71 28 71 66c0 36 -29 62 -71 62zM628 172c-48 0 -81 -29 -81 -70c0 -40 32 -68 81 -68s81 28 81 68c0 41 -33 70 -81 70zM177 0l218 359l200 341h50l-217 -359l-200 -341h-51z" />
    <glyph glyph-name="threeeighths" unicode="&#x215c;" horiz-adv-x="794"
d="M626 -8c-76 0 -129 43 -129 109c0 44 27 76 65 93c-31 16 -55 45 -55 87c0 61 54 102 120 102c65 0 118 -41 118 -102c0 -42 -23 -70 -55 -87c38 -16 65 -49 65 -92c0 -67 -54 -110 -129 -110zM626 341c-42 0 -71 -26 -71 -62c0 -38 29 -66 71 -66s71 28 71 66
c0 36 -29 62 -71 62zM626 172c-48 0 -81 -29 -81 -70c0 -40 32 -68 81 -68s81 28 81 68c0 41 -33 70 -81 70zM163 0l218 359l200 341h50l-217 -359l-200 -341h-51zM165 317c-57 0 -99 25 -128 58l30 35c26 -28 57 -48 99 -48c40 0 74 27 74 70c0 44 -39 68 -99 68h-23l-7 32
l112 122h-168v46h232v-39l-113 -121c66 -7 117 -40 117 -108c0 -69 -56 -115 -126 -115z" />
    <glyph glyph-name="fiveeighths" unicode="&#x215d;" horiz-adv-x="794"
d="M626 -8c-76 0 -129 43 -129 109c0 44 27 76 65 93c-31 16 -55 45 -55 87c0 61 54 102 120 102c65 0 118 -41 118 -102c0 -42 -23 -70 -55 -87c38 -16 65 -49 65 -92c0 -67 -54 -110 -129 -110zM626 341c-42 0 -71 -26 -71 -62c0 -38 29 -66 71 -66s71 28 71 66
c0 36 -29 62 -71 62zM626 172c-48 0 -81 -29 -81 -70c0 -40 32 -68 81 -68s81 28 81 68c0 41 -33 70 -81 70zM163 0l218 359l200 341h50l-217 -359l-200 -341h-51zM165 317c-47 0 -91 20 -125 54l30 37c28 -28 60 -46 96 -46c50 0 80 35 80 78c0 47 -34 71 -81 71
c-27 0 -51 -7 -72 -17l-33 18l14 188h206v-48h-164l-8 -108c18 7 41 12 66 12c68 0 123 -41 123 -114c0 -74 -55 -125 -132 -125z" />
    <glyph glyph-name="seveneighths" unicode="&#x215e;" horiz-adv-x="794"
d="M620 -8c-76 0 -129 43 -129 109c0 44 27 76 65 93c-31 16 -55 45 -55 87c0 61 54 102 120 102c65 0 118 -41 118 -102c0 -42 -23 -70 -55 -87c38 -16 65 -49 65 -92c0 -67 -54 -110 -129 -110zM620 341c-42 0 -71 -26 -71 -62c0 -38 29 -66 71 -66s71 28 71 66
c0 36 -29 62 -71 62zM620 172c-48 0 -81 -29 -81 -70c0 -40 32 -68 81 -68s81 28 81 68c0 41 -33 70 -81 70zM146 323h-56l155 328h-186v49h243v-38zM131 0l218 359l200 341h50l-217 -359l-200 -341h-51z" />
    <glyph glyph-name="zero.sup" unicode="&#x2070;"
d="M176 428c-80 0 -131 74 -131 192v5c0 119 51 194 132 194c79 0 131 -73 131 -192v-5c0 -119 -53 -194 -132 -194zM176 773c-50 0 -80 -56 -80 -147v-5c0 -91 31 -147 81 -147c49 0 80 56 80 147v5c0 91 -31 147 -81 147z" />
    <glyph glyph-name="one.sup" unicode="&#xb9;" horiz-adv-x="287"
d="M188 436h-51v326l-79 -33l-9 45l98 42h41v-380z" />
    <glyph glyph-name="one.sup_alt"
d="M310 436h-246v44h102v283l-92 -37l-9 46l111 44h41v-336h93v-44z" />
    <glyph glyph-name="two.sup" unicode="&#xb2;"
d="M49 436v41l132 132c44 42 64 69 64 103c0 37 -29 61 -66 61c-40 0 -67 -24 -93 -57l-34 29c34 46 71 74 130 74c66 0 115 -43 115 -104c0 -49 -24 -80 -75 -129l-104 -103h182v-47h-251z" />
    <glyph glyph-name="three.sup" unicode="&#xb3;"
d="M170 428c-57 0 -99 25 -128 58l30 35c26 -28 57 -48 99 -48c40 0 74 27 74 69c0 45 -39 69 -99 69h-23l-7 32l112 122h-168v46h232v-39l-113 -121c66 -7 117 -40 117 -108c0 -69 -56 -115 -126 -115z" />
    <glyph glyph-name="four.sup" unicode="&#x2074;"
d="M268 518v-84h-47v84h-171l-8 42l169 255h57v-255h48v-42h-48zM222 559v194h-2l-128 -194h130z" />
    <glyph glyph-name="five.sup" unicode="&#x2075;"
d="M170 428c-47 0 -91 20 -125 54l30 37c28 -28 60 -46 96 -46c50 0 80 35 80 78c0 47 -34 71 -81 71c-27 0 -51 -7 -72 -17l-33 18l14 188h206v-48h-164l-8 -108c18 7 41 12 66 12c68 0 123 -41 123 -114c0 -74 -55 -125 -132 -125z" />
    <glyph glyph-name="six.sup" unicode="&#x2076;"
d="M176 428c-34 0 -65 13 -85 33c-26 26 -44 66 -44 145v5c0 132 58 208 145 208c42 0 71 -14 97 -37l-26 -38c-19 16 -42 30 -72 30c-52 0 -92 -53 -95 -140c20 25 48 42 90 42c61 0 114 -41 114 -120c0 -75 -54 -128 -124 -128zM176 472c45 0 75 33 75 82
c0 50 -29 79 -74 79c-43 0 -76 -30 -76 -79c0 -48 32 -82 75 -82z" />
    <glyph glyph-name="seven.sup" unicode="&#x2077;"
d="M144 434h-56l155 328h-186v49h243v-38z" />
    <glyph glyph-name="eight.sup" unicode="&#x2078;"
d="M177 428c-76 0 -129 43 -129 109c0 44 27 76 65 93c-31 16 -55 45 -55 87c0 61 54 102 120 102c65 0 118 -41 118 -102c0 -42 -23 -70 -55 -87c38 -16 65 -49 65 -92c0 -67 -54 -110 -129 -110zM177 777c-42 0 -71 -26 -71 -62c0 -38 29 -66 71 -66s71 28 71 66
c0 36 -29 62 -71 62zM177 608c-48 0 -81 -29 -81 -70c0 -40 32 -68 81 -68s81 28 81 68c0 41 -33 70 -81 70z" />
    <glyph glyph-name="nine.sup" unicode="&#x2079;"
d="M177 819c34 0 65 -13 85 -33c26 -25 45 -66 45 -145v-6c0 -133 -59 -207 -146 -207c-42 0 -74 15 -102 39l26 39c22 -19 46 -33 78 -33c51 0 92 51 94 136c-20 -25 -48 -42 -89 -42c-61 0 -115 42 -115 122c0 76 54 130 124 130zM176 610c43 0 77 30 77 81
c0 50 -32 84 -75 84c-46 0 -76 -33 -76 -84c0 -52 30 -81 74 -81z" />
    <glyph glyph-name="zero.inf" unicode="&#x2080;"
d="M176 -140c-80 0 -131 74 -131 192v5c0 119 51 194 132 194c79 0 131 -73 131 -192v-5c0 -119 -53 -194 -132 -194zM176 205c-50 0 -80 -56 -80 -147v-5c0 -91 31 -147 81 -147c49 0 80 56 80 147v5c0 91 -31 147 -81 147z" />
    <glyph glyph-name="one.inf" unicode="&#x2081;" horiz-adv-x="287"
d="M188 -132h-51v326l-79 -33l-9 45l98 42h41v-380z" />
    <glyph glyph-name="one.inf_alt"
d="M310 -132h-246v44h102v283l-92 -37l-9 46l111 44h41v-336h93v-44z" />
    <glyph glyph-name="two.inf" unicode="&#x2082;"
d="M49 -132v41l132 132c44 42 64 69 64 103c0 37 -29 61 -66 61c-40 0 -67 -24 -93 -57l-34 29c34 46 71 74 130 74c66 0 115 -43 115 -104c0 -49 -24 -80 -75 -129l-104 -103h182v-47h-251z" />
    <glyph glyph-name="three.inf" unicode="&#x2083;"
d="M170 -140c-57 0 -99 25 -128 58l30 35c26 -28 57 -48 99 -48c40 0 74 27 74 69c0 45 -39 69 -99 69h-23l-7 32l112 122h-168v46h232v-39l-113 -121c66 -7 117 -40 117 -108c0 -69 -56 -115 -126 -115z" />
    <glyph glyph-name="four.inf" unicode="&#x2084;"
d="M268 -50v-84h-47v84h-171l-8 42l169 255h57v-255h48v-42h-48zM222 -9v194h-2l-128 -194h130z" />
    <glyph glyph-name="five.inf" unicode="&#x2085;"
d="M170 -140c-47 0 -91 20 -125 54l30 37c28 -28 60 -46 96 -46c50 0 80 35 80 78c0 47 -34 71 -81 71c-27 0 -51 -7 -72 -17l-33 18l14 188h206v-48h-164l-8 -108c18 7 41 12 66 12c68 0 123 -41 123 -114c0 -74 -55 -125 -132 -125z" />
    <glyph glyph-name="six.inf" unicode="&#x2086;"
d="M176 -140c-34 0 -65 13 -85 33c-26 26 -44 66 -44 145v5c0 132 58 208 145 208c42 0 71 -14 97 -37l-26 -38c-19 16 -42 30 -72 30c-52 0 -92 -53 -95 -140c20 25 48 42 90 42c61 0 114 -41 114 -120c0 -75 -54 -128 -124 -128zM176 -96c45 0 75 33 75 82
c0 50 -29 79 -74 79c-43 0 -76 -30 -76 -79c0 -48 32 -82 75 -82z" />
    <glyph glyph-name="seven.inf" unicode="&#x2087;"
d="M144 -134h-56l155 328h-186v49h243v-38z" />
    <glyph glyph-name="eight.inf" unicode="&#x2088;"
d="M177 -140c-76 0 -129 43 -129 109c0 44 27 76 65 93c-31 16 -55 45 -55 87c0 61 54 102 120 102c65 0 118 -41 118 -102c0 -42 -23 -70 -55 -87c38 -16 65 -49 65 -92c0 -67 -54 -110 -129 -110zM177 209c-42 0 -71 -26 -71 -62c0 -38 29 -66 71 -66s71 28 71 66
c0 36 -29 62 -71 62zM177 40c-48 0 -81 -29 -81 -70c0 -40 32 -68 81 -68s81 28 81 68c0 41 -33 70 -81 70z" />
    <glyph glyph-name="nine.inf" unicode="&#x2089;"
d="M177 251c34 0 65 -13 85 -33c26 -25 45 -66 45 -145v-6c0 -133 -59 -207 -146 -207c-42 0 -74 15 -102 39l26 39c22 -19 46 -33 78 -33c51 0 92 51 94 136c-20 -25 -48 -42 -89 -42c-61 0 -115 42 -115 122c0 76 54 130 124 130zM176 42c43 0 77 30 77 81
c0 50 -32 84 -75 84c-46 0 -76 -33 -76 -84c0 -52 30 -81 74 -81z" />
    <glyph glyph-name="zero.tab" horiz-adv-x="530"
d="M264 -11c-130 0 -218 124 -218 354v12c0 231 89 356 219 356s218 -124 218 -354v-12c0 -231 -89 -356 -219 -356zM265 645c-86 0 -145 -97 -145 -288v-12c0 -191 59 -290 145 -290c85 0 144 97 144 288v12c0 191 -58 290 -144 290z" />
    <glyph glyph-name="one.tab" horiz-adv-x="530"
d="M494 0h-420v65h183v558l-166 -67l-14 67l197 81h56v-639h164v-65z" />
    <glyph glyph-name="two.tab" horiz-adv-x="530"
d="M472 0h-426v58l225 252c85 92 119 145 119 208c-1 76 -57 123 -124 123c-69 0 -115 -38 -162 -105l-51 43c56 82 118 131 218 131c115 0 195 -77 195 -186v-2c0 -88 -43 -146 -132 -243l-186 -209h324v-70z" />
    <glyph glyph-name="three.tab" horiz-adv-x="530"
d="M251 -11c-92 0 -160 39 -211 97l47 53c41 -46 90 -82 166 -82c78 0 144 54 144 142v3c0 86 -68 132 -178 132h-36l-15 48l204 249h-305v69h396v-62l-204 -245c113 -7 213 -64 213 -188v-3c0 -129 -100 -213 -221 -213z" />
    <glyph glyph-name="three.tab_alt" horiz-adv-x="530"
d="M253 -11c-86 0 -162 38 -215 101l48 49c45 -53 101 -83 168 -83c87 0 147 52 147 136s-67 132 -179 132h-48v64h53c95 0 164 52 164 136c0 73 -53 120 -133 120c-67 0 -117 -32 -160 -84l-47 44c51 65 120 107 211 107c121 0 204 -74 204 -181c0 -92 -61 -145 -125 -170
c77 -25 134 -78 134 -171c0 -115 -90 -200 -222 -200z" />
    <glyph glyph-name="four.tab" horiz-adv-x="530"
d="M347 0v160h-303l-12 64l298 480h85v-482h85v-62h-85v-160h-68zM347 221v388h-1l-244 -388h245z" />
    <glyph glyph-name="five.tab" horiz-adv-x="530"
d="M252 -11c-87 0 -155 37 -207 89l44 55c48 -47 100 -77 164 -77c90 0 150 65 150 157v3c0 92 -61 146 -149 146c-53 0 -94 -17 -127 -36l-48 31l21 343h348v-69h-286l-15 -230c32 15 70 27 119 27c117 0 212 -73 212 -209v-2c0 -136 -97 -228 -226 -228z" />
    <glyph glyph-name="six.tab" horiz-adv-x="530"
d="M287 444c107 0 198 -76 198 -216v-4c0 -138 -92 -235 -210 -235c-59 0 -110 22 -144 56c-50 51 -79 124 -79 275v10c0 238 93 381 250 381c63 0 110 -21 157 -59l-37 -59c-33 28 -71 50 -122 50c-116 0 -175 -127 -176 -292c34 58 91 93 163 93zM274 54
c86 0 138 73 138 167v2c0 99 -56 157 -136 157c-87 0 -142 -67 -142 -159v-1c0 -97 56 -166 140 -166z" />
    <glyph glyph-name="seven.tab" horiz-adv-x="530"
d="M395 630h-334v70h416v-57l-275 -643h-81z" />
    <glyph glyph-name="eight.tab" horiz-adv-x="530"
d="M265 -10c-127 0 -219 80 -219 195v5c0 82 50 143 123 173c-60 28 -105 80 -105 161v3c0 110 91 183 201 183c109 0 200 -73 200 -183v-3c0 -80 -45 -133 -104 -161c72 -30 123 -91 123 -173v-4c0 -117 -93 -196 -219 -196zM265 53c91 0 145 59 145 135v3
c0 81 -63 138 -145 138s-146 -57 -146 -138v-3c0 -76 54 -135 146 -135zM265 390c73 0 128 55 128 129v3c0 74 -54 126 -128 126c-75 0 -129 -52 -129 -125v-4c0 -74 56 -129 129 -129z" />
    <glyph glyph-name="nine.tab" horiz-adv-x="530"
d="M244 250c-107 0 -198 76 -198 219v4c0 141 92 238 210 238c59 0 110 -22 144 -56c50 -50 79 -124 79 -275v-10c0 -238 -93 -381 -250 -381c-63 0 -116 23 -167 64l37 59c43 -35 81 -55 132 -55c113 0 173 127 176 285c-34 -58 -92 -92 -163 -92zM257 646
c-86 0 -138 -74 -138 -170v-2c0 -101 56 -161 135 -161c87 0 143 68 143 163v1c0 99 -56 169 -140 169z" />
    <glyph glyph-name="period.tab" horiz-adv-x="265"
d="M83 0v111h99v-111h-99z" />
    <glyph glyph-name="comma.tab" horiz-adv-x="265"
d="M72 -120l-12 34c48 17 68 44 64 86h-41v111h99v-96c0 -79 -38 -117 -110 -135z" />
    <glyph glyph-name="colon.tab" horiz-adv-x="265"
d="M83 409v111h99v-111h-99zM83 0v111h99v-111h-99z" />
    <glyph glyph-name="semicolon.tab" horiz-adv-x="265"
d="M83 409v111h99v-111h-99zM72 -120l-12 34c48 17 68 44 64 86h-41v111h99v-96c0 -79 -38 -117 -110 -135z" />
    <glyph glyph-name="twodotleader.tab" horiz-adv-x="530"
d="M349 0v106h95v-106h-95zM86 0v106h94v-106h-94z" />
    <glyph glyph-name="periodcentered.tab" horiz-adv-x="265"
d="M83 245v112h99v-112h-99z" />
    <glyph glyph-name="slash.tab" horiz-adv-x="530"
d="M509 789l-436 -908h-66l435 908h67z" />
    <glyph glyph-name="bar.tab" horiz-adv-x="265"
d="M102 -119v908h60v-908h-60z" />
    <glyph glyph-name="underscore.tab" horiz-adv-x="530"
d="M-1 -159v60h531v-60h-531z" />
    <glyph glyph-name="dollar.tab" horiz-adv-x="530"
d="M343 779l-8 -83c48 -10 92 -32 133 -64l-37 -57c-35 27 -69 46 -107 56l-26 -249c127 -44 183 -100 183 -196v-1c0 -109 -88 -188 -213 -188h-7l-12 -113h-56l13 118c-63 12 -120 41 -168 83l39 56c41 -37 86 -64 138 -75l27 260c-122 42 -179 97 -179 194
c0 108 86 183 205 183h10l9 76h56zM411 181c0 60 -29 98 -118 129l-27 -249h4c90 0 141 53 141 120zM134 525c0 -58 28 -96 115 -127l25 241h-9c-81 0 -131 -47 -131 -114z" />
    <glyph glyph-name="sterling.tab" horiz-adv-x="530"
d="M125 367v119c0 73 16 130 58 172c31 30 76 51 136 51c80 0 133 -39 170 -82l-49 -50c-32 37 -70 64 -121 64c-33 0 -60 -10 -82 -32c-27 -27 -38 -68 -38 -122v-120h221v-64h-221v-237h288v-66h-432v42l70 21v240h-71v64h71z" />
    <glyph glyph-name="Euro.tab" horiz-adv-x="530"
d="M32 409v55h75c28 149 113 246 231 246c70 0 117 -31 156 -76l-43 -51c-31 37 -66 61 -114 61c-78 0 -135 -68 -157 -180h199v-55h-207c-1 -18 -2 -36 -2 -53v-11c0 -16 0 -33 1 -48h208v-55h-200c20 -114 78 -186 157 -186c52 0 85 25 118 64l42 -47
c-40 -49 -91 -83 -163 -83c-117 0 -202 94 -228 252h-73v55h67c-1 15 -2 31 -2 47v12c0 17 1 35 2 53h-67z" />
    <glyph glyph-name="yen.tab" horiz-adv-x="530"
d="M78 171h152v97h-152v55h137l-197 377h82l166 -337l166 337h79l-197 -377h138v-55h-152v-97h152v-55h-152v-116h-70v116h-152v55z" />
    <glyph glyph-name="cent.tab" horiz-adv-x="530"
d="M365 705l-13 -88c52 -12 92 -40 125 -76l-42 -49c-27 28 -56 52 -94 62l-57 -406h8c64 0 109 30 146 71l40 -45c-46 -53 -110 -89 -190 -89h-11l-13 -91h-59l15 101c-98 29 -164 124 -164 252v6c0 157 100 269 238 270l13 82h58zM126 349c0 -98 42 -165 106 -190l55 401
c-94 -4 -161 -84 -161 -207v-4z" />
    <glyph glyph-name="numbersign.tab" horiz-adv-x="530"
d="M28 242h91l25 219h-87v64h95l20 175h58l-20 -175h149l21 175h58l-21 -175h84v-64h-91l-26 -219h89v-63h-96l-21 -179h-58l21 179h-150l-20 -179h-58l20 179h-83v63zM202 462l-26 -221h150l27 221h-151z" />
    <glyph glyph-name="paragraph.tab" horiz-adv-x="530"
d="M358 0v260h-48c-150 1 -255 80 -255 219c0 140 104 221 259 221h120v-700h-76z" />
    <glyph glyph-name="section.tab" horiz-adv-x="530"
d="M267 -9c-69 0 -133 26 -180 68l39 51c36 -32 86 -58 143 -58c55 0 86 28 86 65v1c0 40 -35 65 -127 97c-135 45 -182 81 -182 146v1c0 57 45 102 125 115c-43 28 -67 59 -67 104v1c0 74 66 127 159 127c69 0 132 -26 179 -68l-38 -51c-37 32 -86 58 -144 58
c-55 0 -85 -28 -85 -65v-1c0 -40 34 -65 127 -97c135 -45 182 -81 182 -146v-1c0 -57 -45 -102 -126 -115c43 -28 68 -59 68 -104v-1c0 -74 -67 -127 -159 -127zM211 441c-57 0 -98 -31 -98 -72v-1c0 -37 29 -62 114 -89c50 -16 68 -20 92 -20c56 0 97 31 97 72v1
c0 37 -29 62 -114 89c-49 16 -69 19 -91 20z" />
    <glyph glyph-name="degree.tab" horiz-adv-x="530"
d="M264 312c-99 0 -180 84 -180 196v3c0 112 83 197 181 197c99 0 181 -85 181 -197v-3c0 -112 -83 -196 -182 -196zM265 364c73 0 124 61 124 144v3c0 84 -52 145 -125 145s-124 -61 -124 -145v-3c0 -83 53 -144 125 -144z" />
    <glyph glyph-name="percent.tab" horiz-adv-x="530"
d="M391 335c68 0 110 -68 110 -166v-8c0 -98 -42 -168 -110 -168c-67 0 -110 69 -110 167v8c0 98 43 167 110 167zM138 707c68 0 110 -69 110 -167v-7c0 -98 -42 -168 -110 -168c-67 0 -110 68 -110 166v8c0 98 43 168 110 168zM411 700h49l-179 -359l-163 -341h-48l179 358
zM139 660c-40 0 -60 -50 -60 -119v-11c0 -69 20 -118 60 -118c39 0 59 49 59 118v11c0 69 -20 119 -59 119zM391 288c-39 0 -59 -49 -59 -118v-11c0 -69 20 -119 59 -119c40 0 59 50 59 119v11c0 69 -19 118 -59 118z" />
    <glyph glyph-name="quotedbl.tab" horiz-adv-x="530"
d="M307 431l44 269h87v-6l-94 -263h-37zM111 431l44 269h87v-6l-94 -263h-37z" />
    <glyph glyph-name="quotesingle.tab" horiz-adv-x="265"
d="M77 431l45 269h86v-6l-93 -263h-38z" />
    <glyph glyph-name="plus.tab" horiz-adv-x="530"
d="M474 319h-175v-180h-69l1 180h-175v66h175l-1 180h69v-180h175v-66z" />
    <glyph glyph-name="minus.tab" horiz-adv-x="530"
d="M473 316h-417v72h417v-72z" />
    <glyph glyph-name="divide.tab" horiz-adv-x="530"
d="M219 484v98h91v-98h-91zM473 318h-417v68h417v-68zM219 123v97h91v-97h-91z" />
    <glyph glyph-name="equal.tab" horiz-adv-x="530"
d="M461 421h-392v69h392v-69zM461 214h-392v69h392v-69z" />
    <glyph glyph-name="multiply.tab" horiz-adv-x="530"
d="M412 153l-148 152l-147 -152l-49 46l152 152l-152 153l50 47l147 -152l148 152l48 -46l-151 -152l151 -153z" />
    <glyph glyph-name="less.tab" horiz-adv-x="530"
d="M450 111l-391 210v62l391 210v-75l-316 -165l316 -167v-75z" />
    <glyph glyph-name="greater.tab" horiz-adv-x="530"
d="M470 321l-390 -210v75l316 165l-316 167v75l390 -210v-62z" />
    <glyph glyph-name="plusminus.tab" horiz-adv-x="530"
d="M474 352h-175v-173h-69l1 173h-175v67h175l-1 174h69v-174h175v-67zM473 21h-417v65h417v-65z" />
    <glyph glyph-name="space" unicode=" " horiz-adv-x="259"
 />
    <glyph glyph-name="uni00A0" unicode="&#xa0;" horiz-adv-x="259"
 />
    <glyph glyph-name="emspace" unicode="&#x2003;" horiz-adv-x="1000"
 />
    <glyph glyph-name="enspace" unicode="&#x2002;" horiz-adv-x="500"
 />
    <glyph glyph-name="threeperemspace" unicode="&#x2004;" horiz-adv-x="333"
 />
    <glyph glyph-name="fourperemspace" unicode="&#x2005;" horiz-adv-x="250"
 />
    <glyph glyph-name="thinspace" unicode="&#x2009;" horiz-adv-x="126"
 />
    <glyph glyph-name="hairspace" unicode="&#x200a;" horiz-adv-x="70"
 />
    <glyph glyph-name="space.tab" horiz-adv-x="265"
 />
    <glyph glyph-name="figurespace" unicode="&#x2007;" horiz-adv-x="530"
 />
    <glyph glyph-name="NUL" horiz-adv-x="0"
 />
    <glyph glyph-name="asciicircum" unicode="^" horiz-adv-x="455"
d="M69 503l130 195h57l130 -195h-63l-96 140l-97 -140h-61z" />
    <glyph glyph-name="asciitilde" unicode="~" horiz-adv-x="425"
d="M275 248c-23 0 -44 10 -66 22c-21 11 -40 21 -55 21c-22 0 -32 -15 -45 -49l-44 12c17 70 43 99 85 99c23 0 44 -10 66 -22c21 -11 40 -20 55 -20c22 0 33 14 46 48l44 -12c-18 -70 -44 -99 -86 -99z" />
    <glyph glyph-name="hfjslug" horiz-adv-x="694"
d="M644 -200h-208l-8 14h-163l-8 -14h-207v303c18 0 32 14 32 32c0 17 -14 32 -32 32v554h100l30 79h334l29 -79h101v-921zM400 563v-172h15v78h38v14h-38v66h43v14h-58zM184 563v-172h15v79h47v-79h15v172h-15v-79h-47v79h-15zM460 394c5 -2 14 -4 21 -4c20 0 31 11 31 36
v137h-16v-137c0 -16 -5 -22 -16 -22c-6 0 -15 3 -20 5v-15zM371 465l-13 3c-2 -9 -5 -21 -8 -30h-1l-16 31c13 12 23 26 23 42c0 17 -9 31 -27 31c-17 0 -28 -14 -28 -31c0 -15 6 -24 14 -39c-15 -12 -23 -28 -23 -47c0 -22 12 -37 29 -37c13 0 23 9 29 24h1l12 -24l12 6
l-17 32c5 12 9 25 13 39zM523 323v-46h8v12l8 8l15 -20h10l-20 26l18 20h-10l-20 -24h-1v24h-8zM488 292l10 -15h9l-12 17c5 2 10 6 10 14c0 9 -7 15 -17 15h-20v-46h8v15h12zM426 276c14 0 24 11 24 24c0 12 -10 24 -24 24s-24 -12 -24 -24c0 -13 10 -24 24 -24zM370 301
l-13 22h-9l18 -29v-17h8v17l18 29h-9zM193 323v-46h34v7h-26v13h23v7h-23v12h26v7h-34zM132 323v-46h8v32l25 -32h7v46h-8v-32l-25 32h-7zM241 323l14 -47h8l11 34h1l11 -34h8l14 47h-8l-10 -35h-1l-11 35h-7l-11 -35h-1l-10 35h-8zM327 479c-7 13 -12 22 -12 32
c0 11 6 19 14 19s13 -8 13 -19c0 -12 -5 -21 -15 -32zM342 423c-5 -13 -12 -21 -20 -21c-9 0 -16 10 -16 25c0 13 7 26 16 35zM487 299h-11v17h11c6 0 10 -3 10 -8s-4 -9 -10 -9zM426 283c-10 0 -16 8 -16 17c0 8 6 17 16 17s16 -9 16 -17c0 -9 -6 -17 -16 -17z" />
    <glyph glyph-name="i.dot" horiz-adv-x="232"
d="M76 628v85h80v-85h-80zM80 0v521h72v-521h-72z" />
    <glyph glyph-name="fraction" unicode="&#x2044;" horiz-adv-x="88"
d="M-190 0l218 359l200 341h50l-217 -359l-200 -341h-51z" />
    <glyph glyph-name="zero.num"
d="M176 317c-80 0 -131 74 -131 192v5c0 119 51 194 132 194c79 0 131 -73 131 -192v-5c0 -119 -53 -194 -132 -194zM176 662c-50 0 -80 -56 -80 -147v-5c0 -91 31 -147 81 -147c49 0 80 56 80 147v5c0 91 -31 147 -81 147z" />
    <glyph glyph-name="one.num" horiz-adv-x="287"
d="M188 325h-51v326l-79 -33l-9 45l98 42h41v-380z" />
    <glyph glyph-name="one.num_alt"
d="M310 325h-246v44h102v283l-92 -37l-9 46l111 44h41v-336h93v-44z" />
    <glyph glyph-name="two.num"
d="M49 325v41l132 132c44 42 64 69 64 103c0 37 -29 61 -66 61c-40 0 -67 -24 -93 -57l-34 29c34 46 71 74 130 74c66 0 115 -43 115 -104c0 -49 -24 -80 -75 -129l-104 -103h182v-47h-251z" />
    <glyph glyph-name="three.num"
d="M170 317c-57 0 -99 25 -128 58l30 35c26 -28 57 -48 99 -48c40 0 74 27 74 70c0 44 -39 68 -99 68h-23l-7 32l112 122h-168v46h232v-39l-113 -121c66 -7 117 -40 117 -108c0 -69 -56 -115 -126 -115z" />
    <glyph glyph-name="four.num"
d="M268 407v-84h-47v84h-171l-8 42l169 255h57v-255h48v-42h-48zM222 448v194h-2l-128 -194h130z" />
    <glyph glyph-name="five.num"
d="M170 317c-47 0 -91 20 -125 54l30 37c28 -28 60 -46 96 -46c50 0 80 35 80 78c0 47 -34 71 -81 71c-27 0 -51 -7 -72 -17l-33 18l14 188h206v-48h-164l-8 -108c18 7 41 12 66 12c68 0 123 -41 123 -114c0 -74 -55 -125 -132 -125z" />
    <glyph glyph-name="six.num"
d="M176 317c-34 0 -65 13 -85 33c-26 26 -44 66 -44 145v6c0 131 58 207 145 207c42 0 71 -14 97 -37l-26 -38c-19 16 -42 30 -72 30c-52 0 -92 -53 -95 -140c20 25 48 42 90 42c61 0 114 -41 114 -120c0 -75 -54 -128 -124 -128zM176 361c45 0 75 33 75 82
c0 50 -29 79 -74 79c-43 0 -76 -30 -76 -79c0 -48 32 -82 75 -82z" />
    <glyph glyph-name="seven.num"
d="M144 323h-56l155 328h-186v49h243v-38z" />
    <glyph glyph-name="eight.num"
d="M177 317c-76 0 -130 43 -130 109c0 44 27 76 66 93c-31 16 -55 45 -55 87c0 61 53 102 119 102s119 -41 119 -102c0 -42 -23 -70 -55 -87c38 -16 65 -49 65 -92c0 -67 -54 -110 -129 -110zM177 666c-42 0 -71 -26 -71 -62c0 -38 29 -66 71 -66s71 28 71 66
c0 36 -29 62 -71 62zM177 497c-48 0 -81 -29 -81 -70c0 -40 32 -68 81 -68s81 28 81 68c0 41 -33 70 -81 70z" />
    <glyph glyph-name="nine.num"
d="M177 708c34 0 65 -13 85 -33c26 -25 45 -66 45 -145v-5c0 -134 -59 -208 -146 -208c-42 0 -74 15 -102 39l26 39c22 -19 46 -33 78 -33c51 0 92 51 94 136c-20 -25 -48 -42 -89 -42c-61 0 -115 42 -115 122c0 76 54 130 124 130zM176 499c43 0 77 30 77 81
c0 50 -32 84 -75 84c-46 0 -76 -33 -76 -84c0 -52 30 -81 74 -81z" />
    <glyph glyph-name="zero.den"
d="M176 -8c-80 0 -131 74 -131 192v5c0 119 51 194 132 194c79 0 131 -73 131 -192v-5c0 -119 -53 -194 -132 -194zM176 337c-50 0 -80 -56 -80 -147v-5c0 -91 31 -147 81 -147c49 0 80 56 80 147v5c0 91 -31 147 -81 147z" />
    <glyph glyph-name="one.den" horiz-adv-x="287"
d="M188 0h-51v326l-79 -33l-9 45l98 42h41v-380z" />
    <glyph glyph-name="one.den_alt"
d="M310 0h-246v44h102v283l-92 -37l-9 46l111 44h41v-336h93v-44z" />
    <glyph glyph-name="two.den"
d="M49 0v41l132 132c44 42 64 69 64 103c0 37 -29 61 -66 61c-40 0 -67 -24 -93 -57l-34 29c34 46 71 74 130 74c66 0 115 -43 115 -104c0 -49 -24 -80 -75 -129l-104 -103h182v-47h-251z" />
    <glyph glyph-name="three.den"
d="M170 -8c-57 0 -99 25 -128 58l30 35c26 -28 57 -48 99 -48c40 0 74 27 74 69c0 45 -39 69 -99 69h-23l-7 32l112 122h-168v46h232v-39l-113 -121c66 -7 117 -40 117 -108c0 -69 -56 -115 -126 -115z" />
    <glyph glyph-name="four.den"
d="M268 82v-84h-47v84h-171l-8 42l169 255h57v-255h48v-42h-48zM222 123v194h-2l-128 -194h130z" />
    <glyph glyph-name="five.den"
d="M170 -8c-47 0 -91 20 -125 54l30 37c28 -28 60 -46 96 -46c50 0 80 35 80 78c0 47 -34 71 -81 71c-27 0 -51 -7 -72 -17l-33 18l14 188h206v-48h-164l-8 -108c18 7 41 12 66 12c68 0 123 -41 123 -114c0 -74 -55 -125 -132 -125z" />
    <glyph glyph-name="six.den"
d="M176 -8c-34 0 -65 13 -85 33c-26 26 -44 66 -44 145v5c0 132 58 208 145 208c42 0 71 -14 97 -37l-26 -38c-19 16 -42 30 -72 30c-52 0 -92 -53 -95 -140c20 25 48 42 90 42c61 0 114 -41 114 -120c0 -75 -54 -128 -124 -128zM176 36c45 0 75 33 75 82
c0 50 -29 79 -74 79c-43 0 -76 -30 -76 -79c0 -48 32 -82 75 -82z" />
    <glyph glyph-name="seven.den"
d="M144 -2h-56l155 328h-186v49h243v-38z" />
    <glyph glyph-name="eight.den"
d="M177 -8c-76 0 -129 43 -129 109c0 44 27 76 65 93c-31 16 -55 45 -55 87c0 61 54 102 120 102c65 0 118 -41 118 -102c0 -42 -23 -70 -55 -87c38 -16 65 -49 65 -92c0 -67 -54 -110 -129 -110zM177 341c-42 0 -71 -26 -71 -62c0 -38 29 -66 71 -66s71 28 71 66
c0 36 -29 62 -71 62zM177 172c-48 0 -81 -29 -81 -70c0 -40 32 -68 81 -68s81 28 81 68c0 41 -33 70 -81 70z" />
    <glyph glyph-name="nine.den"
d="M177 383c34 0 65 -13 85 -33c26 -25 45 -66 45 -145v-6c0 -133 -59 -207 -146 -207c-42 0 -74 15 -102 39l26 39c22 -19 46 -33 78 -33c51 0 92 51 94 136c-20 -25 -48 -42 -89 -42c-61 0 -115 42 -115 122c0 76 54 130 124 130zM176 174c43 0 77 30 77 81
c0 50 -32 84 -75 84c-46 0 -76 -33 -76 -84c0 -52 30 -81 74 -81z" />
    <glyph glyph-name="acute" unicode="&#xb4;" horiz-adv-x="500"
d="M182 589l86 140l74 -35l-105 -105h-55z" />
    <glyph glyph-name="hungarumlaut" unicode="&#x2dd;" horiz-adv-x="500"
d="M239 589l86 140l69 -34l-101 -106h-54zM106 589l86 140l69 -34l-101 -106h-54z" />
    <glyph glyph-name="caron.alt" horiz-adv-x="500"
d="M203 576l13 160h66v-3l-45 -157h-34z" />
    <glyph glyph-name="grave" unicode="`" horiz-adv-x="500"
d="M262 589l-105 105l74 35l86 -140h-55z" />
    <glyph glyph-name="circumflex" unicode="&#x2c6;" horiz-adv-x="500"
d="M125 590l94 130h62l94 -130h-59l-67 69l-67 -69h-57z" />
    <glyph glyph-name="caron" unicode="&#x2c7;" horiz-adv-x="500"
d="M375 720l-94 -130h-62l-94 130h59l67 -69l67 69h57z" />
    <glyph glyph-name="breve" unicode="&#x2d8;" horiz-adv-x="500"
d="M250 588c-73 0 -126 41 -133 116h53c10 -35 35 -59 80 -59s70 24 80 59h53c-7 -75 -60 -116 -133 -116z" />
    <glyph glyph-name="tilde" unicode="&#x2dc;" horiz-adv-x="500"
d="M313 589c-23 0 -44 10 -67 22c-21 12 -39 20 -53 20c-22 0 -32 -13 -44 -48l-45 13c18 69 42 98 83 98c23 0 44 -10 67 -22c21 -11 39 -20 53 -20c22 0 32 14 44 47l45 -12c-18 -69 -42 -98 -83 -98z" />
    <glyph glyph-name="macron" unicode="&#xaf;" horiz-adv-x="500"
d="M113 606v58h274v-58h-274z" />
    <glyph glyph-name="dieresis" unicode="&#xa8;" horiz-adv-x="500"
d="M287 592v89h81v-89h-81zM132 592v89h81v-89h-81z" />
    <glyph glyph-name="dotaccent" unicode="&#x2d9;" horiz-adv-x="500"
d="M208 592v89h84v-89h-84z" />
    <glyph glyph-name="ring" unicode="&#x2da;" horiz-adv-x="500"
d="M250 587c-55 0 -100 44 -100 97c0 54 45 98 100 98s100 -44 100 -98c0 -53 -45 -97 -100 -97zM250 621c34 0 62 28 62 63s-28 64 -62 64s-62 -29 -62 -64s28 -63 62 -63z" />
    <glyph glyph-name="acute.cap" horiz-adv-x="500"
d="M179 755l90 123l74 -34l-106 -89h-58z" />
    <glyph glyph-name="hungarumlaut.cap" horiz-adv-x="500"
d="M100 755l91 123l71 -34l-104 -89h-58zM237 755l91 123l71 -34l-105 -89h-57z" />
    <glyph glyph-name="grave.cap" horiz-adv-x="500"
d="M320 755h-59l-105 89l73 34z" />
    <glyph glyph-name="circumflex.cap" horiz-adv-x="500"
d="M118 756l98 114h68l98 -114h-66l-67 59l-67 -59h-64z" />
    <glyph glyph-name="caron.cap" horiz-adv-x="500"
d="M382 870l-98 -114h-68l-98 114h66l67 -59l67 59h64z" />
    <glyph glyph-name="breve.cap" horiz-adv-x="500"
d="M250 754c-74 0 -128 37 -134 105h56c10 -30 35 -47 78 -47s68 17 78 47h56c-6 -68 -60 -105 -134 -105z" />
    <glyph glyph-name="tilde.cap" horiz-adv-x="500"
d="M315 756c-24 0 -47 10 -71 21c-20 9 -38 17 -51 17c-22 0 -32 -13 -45 -44l-47 13c18 63 43 94 84 94c23 0 46 -10 71 -22c20 -9 38 -16 51 -16c22 0 32 12 45 43l46 -13c-18 -63 -42 -93 -83 -93z" />
    <glyph glyph-name="macron.cap" horiz-adv-x="500"
d="M104 772v61h292v-61h-292z" />
    <glyph glyph-name="dieresis.cap" horiz-adv-x="500"
d="M290 757v86h85v-86h-85zM124 757v86h86v-86h-86z" />
    <glyph glyph-name="dotaccent.cap" horiz-adv-x="500"
d="M206 757v86h88v-86h-88z" />
    <glyph glyph-name="ring.cap" horiz-adv-x="500"
d="M250 754c-56 0 -102 39 -102 92s47 92 102 92c56 0 102 -39 102 -92s-47 -92 -102 -92zM250 789c35 0 60 25 60 57s-25 56 -60 56s-60 -24 -60 -56s25 -57 60 -57z" />
    <glyph glyph-name="commaaccent" unicode="&#x326;" horiz-adv-x="500"
d="M202 -228l-8 28c39 9 55 26 52 58h-36v78h82v-69c0 -57 -30 -86 -90 -95z" />
    <glyph glyph-name="cedilla" unicode="&#xb8;" horiz-adv-x="500"
d="M229 -142l-70 31l82 124h55z" />
    <glyph glyph-name="ogonek" unicode="&#x2db;" horiz-adv-x="500"
d="M319 -108v-44c-7 -1 -12 -1 -16 -1c-73 2 -110 30 -110 72c0 34 21 61 58 93l49 -8c-31 -30 -45 -50 -45 -72c0 -26 19 -38 64 -40z" />
    </font>
</defs>
</svg>
